<svg width="358" height="427" viewBox="0 0 358 427" fill="none" xmlns="http://www.w3.org/2000/svg">
<g clip-path="url(#clip0_19_71)">
<path d="M49.1711 334.548L44.906 315.597C37.3448 311.987 29.609 308.86 21.7353 306.232L21.1973 315.039L19.0137 305.336C9.24902 302.195 2.60618 300.811 2.60618 300.811C2.60618 300.811 11.581 339.259 30.4023 368.651L52.3319 372.99L35.2957 375.759C37.6643 378.969 40.2096 382.008 42.9168 384.858C70.2959 413.491 100.79 426.627 111.028 414.198C121.265 401.769 107.369 368.482 79.9898 339.849C71.502 330.972 60.8398 323.849 50.167 318.243L49.1711 334.548Z" fill="#1E0342"/>
<path d="M89.7254 313.965L94.7677 295.258C89.9511 287.763 84.7632 280.581 79.2287 273.745L74.728 280.971L77.3097 271.393C70.3917 263.017 65.3398 257.963 65.3398 257.963C65.3398 257.963 55.3857 296.103 58.0143 332.227L74.7965 348.714L58.9426 341.162C59.4976 345.289 60.2824 349.373 61.2924 353.39C71.5952 393.848 91.6738 422.854 106.139 418.177C120.605 413.5 123.979 376.911 113.676 336.453C110.482 323.91 104.622 311.602 98.0574 300.587L89.7254 313.965Z" fill="#1E0342"/>
<path d="M179 427C277.859 427 358 422.382 358 416.686C358 410.99 277.859 406.372 179 406.372C80.141 406.372 0 410.99 0 416.686C0 422.382 80.141 427 179 427Z" fill="#3F3D56"/>
<path d="M283.58 99.0996H281.546V36.3296C281.546 31.5587 280.712 26.8346 279.092 22.4269C277.472 18.0191 275.097 14.0142 272.103 10.6407C269.109 7.26714 265.555 4.59112 261.643 2.76539C257.731 0.939666 253.539 -1.4297e-05 249.305 1.63143e-10H131.283C127.049 -1.05346e-05 122.857 0.939673 118.945 2.7654C115.033 4.59113 111.479 7.26715 108.485 10.6407C105.491 14.0142 103.117 18.0191 101.496 22.4269C99.876 26.8346 99.0421 31.5587 99.0421 36.3296V380.691C99.0421 385.462 99.876 390.186 101.496 394.594C103.117 399.001 105.491 403.006 108.485 406.38C111.479 409.753 115.033 412.429 118.945 414.255C122.857 416.081 127.049 417.02 131.283 417.02H249.305C253.539 417.02 257.731 416.081 261.643 414.255C265.555 412.429 269.109 409.753 272.103 406.38C275.097 403.006 277.472 399.001 279.092 394.594C280.712 390.186 281.546 385.462 281.546 380.691V143.78H283.58V99.0996Z" fill="#3F3D56"/>
<path d="M274.684 36.5831V380.438C274.684 387.633 272.147 394.534 267.631 399.622C263.115 404.711 256.991 407.569 250.605 407.569H132.018C125.632 407.569 119.507 404.711 114.992 399.622C110.476 394.534 107.939 387.633 107.939 380.438V36.5831C107.939 29.3873 110.476 22.4863 114.992 17.3982C119.507 12.31 125.632 9.45143 132.018 9.45129H146.404C145.697 11.4087 145.428 13.5318 145.62 15.6339C145.812 17.736 146.46 19.7527 147.506 21.5066C148.552 23.2604 149.965 24.6977 151.62 25.692C153.274 26.6863 155.121 27.2072 156.996 27.2087H224.609C226.485 27.2071 228.331 26.6863 229.986 25.692C231.641 24.6977 233.054 23.2604 234.1 21.5065C235.146 19.7527 235.794 17.736 235.986 15.6339C236.178 13.5318 235.909 11.4087 235.202 9.45129H250.605C256.991 9.45142 263.115 12.31 267.631 17.3981C272.147 22.4863 274.684 29.3873 274.684 36.5831Z" fill="white"/>
<path d="M274.684 306.56V380.438C274.684 387.633 272.147 394.534 267.631 399.623C263.115 404.711 256.991 407.569 250.605 407.569H132.018C125.632 407.569 119.507 404.711 114.992 399.623C110.476 394.534 107.939 387.633 107.939 380.438V313.763C118.109 300.311 130.644 289.383 144.753 281.668C158.862 273.954 174.238 269.621 189.909 268.944C205.58 268.268 221.205 271.261 235.797 277.736C250.389 284.21 263.63 294.025 274.684 306.56Z" fill="#E6E6E6"/>
<path d="M134.25 130.756C146.046 130.756 155.608 119.982 155.608 106.69C155.608 93.3988 146.046 82.624 134.25 82.624C122.454 82.624 112.892 93.3988 112.892 106.69C112.892 119.982 122.454 130.756 134.25 130.756Z" fill="#1E0342"/>
<path d="M163.833 292.901H159.04L160.638 187.409H162.236L163.833 292.901Z" fill="#E6E6E6"/>
<path d="M167.827 120.993L175.563 107.521C173.269 100.379 170.619 93.3897 167.626 86.5846L162.623 91.1376L166.584 84.2397C162.809 75.8665 159.839 70.5909 159.839 70.5909C159.839 70.5909 144.323 98.1417 139.14 127.312L149.067 144.6L138.077 134.598C137.685 137.996 137.484 141.418 137.474 144.844C137.474 179.391 147.487 207.397 159.839 207.397C172.191 207.397 182.204 179.391 182.204 144.844C182.204 134.134 180.054 122.93 177.088 112.565L167.827 120.993Z" fill="#E6E6E6"/>
<path d="M136.019 300.35H133.695L134.47 249.188H135.244L136.019 300.35Z" fill="#E6E6E6"/>
<path d="M137.956 216.977L141.708 210.443C140.595 206.979 139.31 203.589 137.859 200.289L135.432 202.497L137.354 199.152C135.523 195.091 134.082 192.532 134.082 192.532C134.082 192.532 126.557 205.894 124.043 220.041L128.858 228.426L123.528 223.575C123.338 225.223 123.24 226.883 123.235 228.544C123.235 245.299 128.092 258.882 134.082 258.882C140.073 258.882 144.929 245.299 144.929 228.544C144.929 223.35 143.886 217.916 142.448 212.889L137.956 216.977Z" fill="#E6E6E6"/>
<path d="M196.533 300.35H194.209L194.984 249.188H195.758L196.533 300.35Z" fill="#E6E6E6"/>
<path d="M198.47 216.977L202.222 210.443C201.11 206.979 199.824 203.589 198.373 200.289L195.947 202.497L197.868 199.152C196.037 195.091 194.596 192.532 194.596 192.532C194.596 192.532 187.071 205.894 184.557 220.041L189.372 228.426L184.042 223.575C183.852 225.223 183.754 226.883 183.749 228.544C183.749 245.299 188.606 258.882 194.596 258.882C200.587 258.882 205.443 245.299 205.443 228.544C205.443 223.35 204.4 217.916 202.962 212.889L198.47 216.977Z" fill="#E6E6E6"/>
<path d="M211.48 134.182L250.464 135.273L255.712 82.8943H211.48V134.182Z" fill="#2F2E41"/>
<path d="M201.767 93.1468L191.013 46.6887C191.013 46.6887 193.984 24.3872 201.17 24.7551C208.357 25.123 199.305 46.5574 199.305 46.5574L211.48 86.6893L201.767 93.1468Z" fill="#FFB8B8"/>
<path d="M222.847 209.551L224.531 228.526C224.531 228.526 171.486 269.322 171.486 286.399C171.486 303.477 169.802 357.555 169.802 357.555L189.168 358.504L190.852 332.888C190.852 332.888 195.062 304.425 192.536 293.989L220.321 270.271C220.321 270.271 211.901 281.656 213.585 301.579C215.269 321.503 211.059 360.401 211.059 360.401L231.267 362.299C231.267 362.299 233.793 341.426 234.635 339.529C235.477 337.631 239.686 303.477 235.477 293.989L269.998 248.45C269.998 248.45 281.785 231.372 269.998 214.295L263.262 210.5L222.847 209.551Z" fill="#2F2E41"/>
<path d="M170.644 353.76L168.96 366.094L158.015 395.505C158.015 395.505 139.491 405.941 152.963 407.838C166.435 409.736 171.486 405.941 174.012 401.197C176.538 396.453 181.59 388.863 181.59 388.863L180.748 408.787H184.958L191.858 381.574C192.534 378.969 192.651 376.22 192.201 373.554C191.75 370.888 190.745 368.38 189.268 366.236C189.235 366.188 189.202 366.141 189.168 366.094C185.8 361.35 187.484 354.709 187.484 354.709L170.644 353.76Z" fill="#2F2E41"/>
<path d="M212.743 353.76L211.059 366.094L200.114 395.505C200.114 395.505 181.59 405.941 195.062 407.838C208.533 409.736 213.585 405.941 216.111 401.197C218.637 396.453 223.689 388.863 223.689 388.863L222.847 408.787H227.057L233.957 381.574C234.632 378.969 234.75 376.22 234.299 373.554C233.849 370.888 232.844 368.38 231.367 366.236C231.334 366.188 231.3 366.141 231.267 366.094C227.899 361.35 229.583 354.709 229.583 354.709L212.743 353.76Z" fill="#2F2E41"/>
<path d="M232.951 111.831C242.251 111.831 249.79 103.336 249.79 92.8561C249.79 82.3766 242.251 73.8813 232.951 73.8813C223.65 73.8813 216.111 82.3766 216.111 92.8561C216.111 103.336 223.65 111.831 232.951 111.831Z" fill="#FFB8B8"/>
<path d="M232.109 108.985L239.686 128.908L254.842 115.626C254.842 115.626 245.58 101.395 245.58 99.4973L232.109 108.985Z" fill="#FFB8B8"/>
<path d="M233.793 120.37L237.385 122.857C237.385 122.857 248.991 115.923 251.916 111.031C251.916 111.031 262.42 107.087 266.63 116.575C270.84 126.062 264.104 191.525 264.104 191.525C264.104 191.525 268.314 198.166 267.472 201.013C266.63 203.859 269.998 208.603 269.998 208.603V214.295C269.998 214.295 222.005 215.244 222.005 210.5V195.32L216.953 193.423C216.953 193.423 211.901 205.756 210.217 204.808C208.533 203.859 200.114 196.269 200.114 196.269C200.114 196.269 213.585 145.986 221.163 137.447L230.425 119.421L233.793 120.37Z" fill="#1E0342"/>
<path d="M232.109 121.318C232.109 121.318 230.425 117.523 227.899 116.575C225.373 115.626 212.743 95.7023 212.743 95.7023L214.427 85.2661L197.588 82.4199C197.588 82.4199 198.43 92.8561 201.798 99.4973C205.165 106.138 223.689 140.293 223.689 140.293L232.951 121.318L232.109 121.318Z" fill="#1E0342"/>
<path d="M245.159 196.743L235.056 230.898C235.056 230.898 214.006 257.463 225.794 257.463C237.582 257.463 243.475 233.744 243.475 233.744L257.789 199.59L245.159 196.743Z" fill="#FFB8B8"/>
<path d="M212.768 93.1334C226.256 87.0423 239.552 85.7429 252.502 93.1334V80.8559C252.502 79.8058 252.318 78.7659 251.962 77.7957C251.605 76.8256 251.082 75.944 250.423 75.2015C249.764 74.4589 248.982 73.8699 248.121 73.4681C247.26 73.0662 246.337 72.8594 245.405 72.8594H218.375C217.638 72.8594 216.909 73.0228 216.229 73.3403C215.549 73.6577 214.931 74.1231 214.41 74.7097C213.89 75.2963 213.477 75.9927 213.195 76.7592C212.913 77.5256 212.768 78.3471 212.768 79.1767V93.1334Z" fill="#2F2E41"/>
<path d="M255.684 119.421C255.684 119.421 263.366 112.089 267.524 120.499C271.682 128.908 269.156 164.96 268.314 169.704C267.472 174.448 261.578 203.859 261.578 203.859L241.37 199.115C241.37 199.115 239.686 185.833 244.738 186.782L255.684 119.421Z" fill="#1E0342"/>
<path d="M264.065 111.268C260.264 108.916 258.494 103.637 258.368 98.7522C258.242 93.8677 259.294 89.0336 259.376 84.1479C259.419 83.1484 259.343 82.1469 259.151 81.1698C258.836 79.9569 258.345 78.8112 257.698 77.7791C252.754 69.2443 244.162 63.2406 235.111 63.1462C233.803 63.1269 232.505 63.3958 231.289 63.9379C230.353 64.3602 230.047 64.3085 229.868 65.6031C227.724 64.8061 225.399 64.8894 223.304 65.8383C221.229 66.7888 219.294 68.0875 217.564 69.6903C216.536 70.5519 215.566 71.4982 214.662 72.5216C209.879 78.1051 208.777 86.7103 210.163 94.312C210.613 96.7833 208.452 99.1693 206.663 100.687C204.875 102.205 202.81 103.599 201.931 105.92C201.087 108.152 201.55 110.706 201.38 113.125C201.189 115.412 200.435 117.593 199.202 119.423C197.969 121.252 196.307 122.657 194.404 123.479C194.792 124.003 195.299 124.399 195.87 124.625C196.442 124.852 197.057 124.9 197.651 124.766C198.891 124.471 200.05 123.849 201.035 122.95C204.737 119.859 207.385 115.431 208.539 110.405C209.064 113.097 208.86 115.874 208.841 118.63C208.887 121.706 208.384 124.761 207.362 127.614C206.323 130.481 204.42 132.843 201.987 134.284C204.333 135.578 206.919 134.64 208.907 132.73C210.895 130.821 212.069 128.049 212.889 125.254C214.223 120.7 214.764 115.898 214.482 111.113C216.664 115.253 217.462 120.135 216.731 124.879C215.967 129.716 213.726 134.099 210.396 137.27C216.203 137.214 221.913 135.594 227.051 132.543C228.378 131.866 229.547 130.851 230.467 129.579C232.12 126.995 231.729 123.47 231.265 120.328C230.899 117.843 233.654 114.251 232.076 112.467C231.607 111.945 230.981 111.641 230.322 111.617C225.515 111.096 221.064 108.375 218.499 103.765C216.701 100.535 215.511 96.8458 215.511 93.3955C215.512 90.6789 216.034 87.9946 217.04 85.5261C218.047 83.0577 219.515 80.8632 221.343 79.0928C223.172 77.3224 225.318 76.0178 227.636 75.2681C229.953 74.5184 232.387 74.3413 234.77 74.749C237.154 75.1566 239.431 76.1394 241.447 77.6301C243.462 79.1209 245.168 81.0844 246.448 83.3865C247.728 85.6885 248.552 88.2749 248.863 90.9688C249.175 93.6626 248.966 96.4005 248.252 98.9952C247.683 101.083 247.275 103.223 247.033 105.39C246.747 107.905 246.293 110.392 245.674 112.829C244.48 117.514 242.457 122.294 238.714 124.737C239.972 125.513 241.428 125.547 242.853 125.724C247.549 126.307 252.488 126.179 256.739 123.855C260.989 121.53 264.368 116.581 264.065 111.268Z" fill="#2F2E41"/>
<path opacity="0.2" d="M249.369 144.562L244.975 185.322L245.159 146.46L249.369 144.562Z" fill="black"/>
<path opacity="0.2" d="M263.807 192.696L261.999 205.282L266.209 207.18L263.807 192.696Z" fill="black"/>
</g>
<defs>
<clipPath id="clip0_19_71">
<rect width="358" height="427" fill="white"/>
</clipPath>
</defs>
</svg>
