<svg width="85" height="76" viewBox="0 0 85 76" fill="none" xmlns="http://www.w3.org/2000/svg">
<ellipse cx="46.24" cy="37.74" rx="38.76" ry="37.74" fill="#1B9C85"/>
<path d="M75.16 37.74C75.16 58.0225 58.5672 74.48 38.08 74.48C17.5928 74.48 1 58.0225 1 37.74C1 17.4575 17.5928 1 38.08 1C58.5672 1 75.16 17.4575 75.16 37.74Z" stroke="black" stroke-width="2"/>
<g clip-path="url(#clip0_74_827)">
<path d="M45.4516 23.12C45.2113 23.12 45.0066 23.2869 44.9627 23.5179L44.7426 24.6639C44.6857 24.9611 44.4449 25.1831 44.1407 25.2445C43.8574 25.302 43.5782 25.3738 43.307 25.4596C43.0128 25.5531 42.6923 25.4792 42.4908 25.2502L41.7175 24.3669C41.5609 24.1885 41.2967 24.1462 41.0883 24.2641L40.5117 24.5896C40.3043 24.7066 40.2099 24.9528 40.2896 25.174L40.6851 26.2724C40.7878 26.557 40.6934 26.8664 40.463 27.0682C40.2486 27.2563 40.0458 27.4544 39.8533 27.664C39.6469 27.8891 39.3303 27.9833 39.0391 27.8829L37.9132 27.4946C37.6868 27.4166 37.4368 27.5079 37.3171 27.7116L36.9821 28.277C36.8624 28.4797 36.9077 28.7388 37.0892 28.8918L37.1866 28.9737C38.3665 28.9932 39.3758 29.818 39.5942 30.9554L39.6546 31.2657L39.8631 31.0258C40.3208 30.5054 40.9617 30.2223 41.624 30.1882C42.5176 28.8676 44.0463 27.9933 45.7867 27.9933C48.5403 27.9933 50.7733 30.1756 50.7733 32.8667C50.7733 34.5675 49.8788 36.0615 48.5274 36.9328C48.4925 37.58 48.2029 38.2073 47.6703 38.6537L47.4249 38.8574L47.7424 38.9164C48.9063 39.1299 49.7502 40.1163 49.7702 41.2694L49.8539 41.3645C50.0105 41.5429 50.2747 41.5872 50.4831 41.4692L51.0616 41.1418C51.2691 41.0249 51.3635 40.7805 51.2837 40.5593L50.8863 39.459C50.7836 39.1744 50.8799 38.865 51.1103 38.6633C51.3248 38.4752 51.5275 38.277 51.72 38.0674C51.9265 37.8423 52.243 37.75 52.5343 37.8504L53.6582 38.2368C53.8846 38.3148 54.1365 38.2235 54.2562 38.0198L54.5893 37.4544C54.709 37.2517 54.6656 36.9945 54.4841 36.8415L53.5803 36.0838C53.3459 35.8869 53.2703 35.5737 53.366 35.2862C53.4538 35.0211 53.5273 34.7501 53.5861 34.4733C53.649 34.177 53.8761 33.9416 54.1802 33.8851L55.3529 33.6681C55.5893 33.6281 55.76 33.429 55.76 33.1941V32.5392C55.76 32.3043 55.5893 32.1043 55.3529 32.0614L54.1802 31.8463C53.8761 31.7908 53.649 31.5554 53.5861 31.2581C53.5273 30.9813 53.4538 30.7084 53.366 30.4433C53.2703 30.1558 53.3459 29.8426 53.5803 29.6457L54.4841 28.8899C54.6666 28.7369 54.71 28.4788 54.5893 28.2751L54.2562 27.7116C54.1365 27.5089 53.8846 27.4166 53.6582 27.4946L52.5343 27.881C52.243 27.9814 51.9265 27.8891 51.72 27.664C51.5275 27.4544 51.3248 27.2563 51.1103 27.0682C50.8799 26.8664 50.7836 26.557 50.8863 26.2724L51.2837 25.1721C51.3635 24.9509 51.2701 24.7066 51.0616 24.5896L50.4831 24.2622C50.2756 24.1452 50.0105 24.1895 49.8539 24.3669L49.0806 25.2502C48.8791 25.4792 48.5586 25.5531 48.2644 25.4596C47.9931 25.3738 47.714 25.302 47.4307 25.2445C47.1275 25.1831 46.8866 24.9592 46.8288 24.6619L46.6087 23.516C46.5668 23.2859 46.3621 23.12 46.1217 23.12H45.4516ZM36.4756 30.9173C36.2353 30.9173 36.0306 31.0833 35.9867 31.3133L35.8016 32.2765C35.7249 32.6771 35.3983 32.9723 34.9894 33.0532C34.6493 33.1205 34.3152 33.2059 33.9901 33.3102C33.5951 33.4369 33.1617 33.3422 32.8915 33.0342L32.2428 32.2937C32.0862 32.1163 31.8211 32.0739 31.6136 32.1909L31.037 32.5164C30.8286 32.6334 30.7352 32.8796 30.815 33.1008L31.15 34.0279C31.2877 34.4119 31.1563 34.8249 30.8461 35.0958C30.5898 35.32 30.346 35.5573 30.1176 35.8078C29.8404 36.1109 29.4178 36.2393 29.0248 36.1048L28.0743 35.7792C27.8479 35.7013 27.5979 35.7935 27.4782 35.9963L27.1432 36.5597C27.0225 36.7634 27.0678 37.0216 27.2503 37.1746L28.008 37.8085C28.3232 38.0727 28.4201 38.4962 28.2905 38.8822C28.1838 39.1999 28.0963 39.5264 28.0275 39.8588C27.9447 40.2584 27.6427 40.5775 27.2328 40.6526L26.2471 40.8334C26.0107 40.8763 25.84 41.0763 25.84 41.3112V41.9661C25.84 42.201 26.0098 42.401 26.2452 42.4439L27.2308 42.6248C27.6407 42.6998 27.9428 43.019 28.0256 43.4186C28.0944 43.7519 28.1818 44.0774 28.2885 44.3951C28.4182 44.7811 28.3212 45.2047 28.0061 45.4688L27.2483 46.1027C27.0668 46.2557 27.0235 46.5149 27.1432 46.7176L27.4763 47.2811C27.5959 47.4848 27.8479 47.5761 28.0743 47.4981L29.0229 47.1707C29.4158 47.0362 29.8384 47.1645 30.1157 47.4676C30.3451 47.7181 30.5879 47.9564 30.8442 48.1796C31.1544 48.4505 31.2857 48.8635 31.1481 49.2475L30.815 50.1765C30.7352 50.3978 30.8296 50.6421 31.037 50.759L31.6136 51.0865C31.8221 51.2044 32.0862 51.1601 32.2428 50.9818L32.8915 50.2412C33.1617 49.9332 33.5951 49.8385 33.9901 49.9652C34.3152 50.0695 34.6493 50.1549 34.9894 50.2222C35.3983 50.3031 35.7249 50.5983 35.8016 50.9989L35.9867 51.9621C36.0306 52.1931 36.2353 52.36 36.4756 52.36H37.1457C37.3861 52.36 37.5908 52.1931 37.6327 51.964L37.8177 51.0008C37.8945 50.6002 38.2211 50.305 38.63 50.2241C38.9711 50.1569 39.3042 50.0714 39.6293 49.9671C40.0242 49.8404 40.4577 49.9351 40.7279 50.2431L41.3766 50.9837C41.5332 51.161 41.7964 51.2053 42.0038 51.0884L42.5823 50.7609C42.7908 50.644 42.8842 50.3997 42.8044 50.1784L42.4713 49.2494C42.3337 48.8654 42.465 48.4524 42.7752 48.1815C43.0315 47.9573 43.2753 47.72 43.5037 47.4695C43.781 47.1664 44.2045 47.0381 44.5965 47.1726L45.5471 47.4981C45.7735 47.5761 46.0235 47.4838 46.1431 47.2811L46.4782 46.7176C46.5989 46.5139 46.5536 46.2557 46.371 46.1027L45.6133 45.4688C45.2981 45.2047 45.2012 44.7811 45.3309 44.3951C45.4376 44.0774 45.525 43.7509 45.5938 43.4186C45.6766 43.019 45.9787 42.6998 46.3886 42.6248L47.3742 42.4439C47.6106 42.401 47.7813 42.201 47.7813 41.9661V41.3112C47.7813 41.0763 47.6105 40.8772 47.3762 40.8353L46.3905 40.6545C45.9806 40.5794 45.6785 40.2584 45.5958 39.8588C45.527 39.5264 45.4395 39.1999 45.3328 38.8822C45.2031 38.4962 45.3001 38.0746 45.6153 37.8104L46.373 37.1765C46.5545 37.0235 46.5998 36.7644 46.4801 36.5616L46.1451 35.9963C46.0254 35.7925 45.7754 35.7013 45.549 35.7792L44.5984 36.1067C44.2055 36.2412 43.7829 36.1128 43.5057 35.8097C43.2763 35.5592 43.0335 35.3209 42.7771 35.0977C42.467 34.8268 42.3356 34.4138 42.4733 34.0298L42.8064 33.1008C42.8861 32.8796 42.7917 32.6353 42.5843 32.5183L42.0077 32.1909C41.7993 32.0729 41.5351 32.1172 41.3785 32.2956L40.7299 33.0361C40.4596 33.3441 40.0262 33.4388 39.6313 33.3121C39.3061 33.2078 38.9721 33.1224 38.632 33.0551C38.2231 32.9742 37.8965 32.679 37.8197 32.2784L37.6346 31.3152C37.5908 31.0842 37.3861 30.9173 37.1457 30.9173H36.4756ZM45.7867 31.892C45.5222 31.892 45.2685 31.9947 45.0814 32.1775C44.8944 32.3603 44.7893 32.6082 44.7893 32.8667C44.7893 33.1252 44.8944 33.3731 45.0814 33.5559C45.2685 33.7386 45.5222 33.8413 45.7867 33.8413C46.0512 33.8413 46.3049 33.7386 46.4919 33.5559C46.6789 33.3731 46.784 33.1252 46.784 32.8667C46.784 32.6082 46.6789 32.3603 46.4919 32.1775C46.3049 31.9947 46.0512 31.892 45.7867 31.892ZM36.8107 35.7907C40.1158 35.7907 42.7947 38.4086 42.7947 41.6387C42.7947 44.8687 40.1158 47.4867 36.8107 47.4867C33.5055 47.4867 30.8267 44.8687 30.8267 41.6387C30.8267 38.4086 33.5055 35.7907 36.8107 35.7907ZM36.8107 39.6893C35.7086 39.6893 34.816 40.5617 34.816 41.6387C34.816 42.7157 35.7086 43.588 36.8107 43.588C37.9127 43.588 38.8053 42.7157 38.8053 41.6387C38.8053 40.5617 37.9127 39.6893 36.8107 39.6893Z" fill="#FFE194"/>
</g>
<defs>
<clipPath id="clip0_74_827">
<rect width="29.92" height="29.24" fill="white" transform="translate(25.84 23.12)"/>
</clipPath>
</defs>
</svg>
