<svg width="85" height="76" viewBox="0 0 85 76" fill="none" xmlns="http://www.w3.org/2000/svg">
<ellipse cx="46.24" cy="37.74" rx="38.76" ry="37.74" fill="#1B9C85"/>
<path d="M75.16 37.74C75.16 58.0225 58.5672 74.48 38.08 74.48C17.5928 74.48 1 58.0225 1 37.74C1 17.4575 17.5928 1 38.08 1C58.5672 1 75.16 17.4575 75.16 37.74Z" stroke="black" stroke-width="2"/>
<path d="M43.5713 20C40.284 20 37.3644 21.5471 35.4809 23.9476C35.1814 23.9051 34.883 23.8572 34.5719 23.8572C31.3193 23.8572 28.6598 26.281 28.2317 29.4169C24.9315 30.5406 22.6312 33.8299 23.049 37.5958C23.4874 41.543 27.0199 44.4287 30.9913 44.4287H39.7144V35.4287C39.7144 34.719 40.2904 34.143 41.0001 34.143C41.7097 34.143 42.2857 34.719 42.2857 35.4287V44.4287H51.0114C54.975 44.4287 58.5012 41.5541 58.9486 37.6159C59.3755 33.8577 57.0959 30.5724 53.8137 29.432C53.3791 24.1515 48.9633 20 43.5713 20ZM42.2857 44.4287H39.7144V51.6107L36.7665 48.6626C36.6467 48.5394 36.5035 48.4415 36.3452 48.3747C36.1869 48.3078 36.0168 48.2734 35.845 48.2734C35.5892 48.2734 35.3393 48.3498 35.1272 48.4926C34.915 48.6355 34.7503 48.8384 34.6541 49.0753C34.5578 49.3123 34.5345 49.5726 34.5869 49.8229C34.6394 50.0733 34.7653 50.3023 34.9486 50.4807L40.0911 55.6236C40.3322 55.8646 40.6592 56 41.0001 56C41.341 56 41.6679 55.8646 41.909 55.6236L47.0516 50.4807C47.1749 50.3622 47.2735 50.2203 47.3413 50.0633C47.4092 49.9063 47.445 49.7373 47.4468 49.5662C47.4485 49.3952 47.4161 49.2255 47.3515 49.0671C47.2868 48.9087 47.1912 48.7649 47.0703 48.6439C46.9493 48.5229 46.8054 48.4273 46.6471 48.3627C46.4887 48.298 46.319 48.2656 46.148 48.2673C45.977 48.2691 45.808 48.3049 45.651 48.3728C45.494 48.4407 45.3521 48.5392 45.2336 48.6626L42.2857 51.6107V44.4287Z" fill="#FFE194"/>
</svg>
