<svg width="225" height="482" viewBox="0 0 225 482" fill="none" xmlns="http://www.w3.org/2000/svg">
<path d="M106.051 462.967C106.051 462.967 100.38 474.766 104.273 479.032H154.33C154.33 479.032 154.049 470.77 141.993 469.468C131.171 468.299 124.584 462.957 124.584 462.957L106.051 462.967Z" fill="#1C0E0C"/>
<path d="M154.898 479.032H103.505C103.129 479.032 102.823 479.338 102.823 479.714V481.318C102.823 481.695 103.129 482 103.505 482H154.898C155.275 482 155.58 481.695 155.58 481.318V479.714C155.58 479.338 155.275 479.032 154.898 479.032Z" fill="#1C0E0C"/>
<path d="M127.826 469.077L129.509 465.28C129.607 465.058 129.749 464.858 129.927 464.693C130.104 464.528 130.314 464.4 130.543 464.318C130.771 464.237 131.014 464.202 131.256 464.217C131.499 464.233 131.735 464.297 131.952 464.406C132.339 464.602 132.642 464.931 132.804 465.334C132.966 465.736 132.976 466.183 132.833 466.593L132.6 467.234" stroke="#070707" stroke-linecap="round" stroke-linejoin="round"/>
<path d="M132.788 470.839L134.416 466.949C134.502 466.755 134.626 466.581 134.782 466.437C134.937 466.292 135.12 466.181 135.32 466.11C135.519 466.038 135.731 466.008 135.943 466.021C136.155 466.034 136.361 466.09 136.551 466.185C136.889 466.356 137.154 466.645 137.295 466.996C137.437 467.348 137.447 467.739 137.322 468.097L137.181 468.635" stroke="#070707" stroke-linecap="round" stroke-linejoin="round"/>
<path d="M137.798 472.422L138.871 468.491C138.931 468.288 139.032 468.1 139.167 467.937C139.302 467.774 139.469 467.641 139.657 467.544C139.846 467.448 140.052 467.391 140.263 467.377C140.474 467.363 140.686 467.393 140.886 467.463C141.626 467.72 142.113 468.436 142 469.475" stroke="#070707" stroke-linecap="round" stroke-linejoin="round"/>
<path d="M16.9214 462.967C16.9214 462.967 11.2498 474.766 15.1428 479.032H62.4065C62.4065 479.032 62.1255 470.77 50.0697 469.468C39.251 468.299 32.6611 462.957 32.6611 462.957L16.9214 462.967Z" fill="#1C0E0C"/>
<path d="M62.9719 479.032H14.3752C13.9985 479.032 13.6932 479.338 13.6932 479.714V481.318C13.6932 481.695 13.9985 482 14.3752 482H62.9719C63.3486 482 63.6539 481.695 63.6539 481.318V479.714C63.6539 479.338 63.3486 479.032 62.9719 479.032Z" fill="#1C0E0C"/>
<path d="M35.9029 469.077L37.5752 465.28C37.673 465.058 37.8149 464.859 37.9923 464.693C38.1698 464.528 38.379 464.4 38.6073 464.319C38.8357 464.237 39.0782 464.202 39.3203 464.218C39.5623 464.233 39.7988 464.297 40.0152 464.406C40.4031 464.601 40.7069 464.93 40.8696 465.333C41.0324 465.735 41.0429 466.183 40.8993 466.593L40.6663 467.233" stroke="#070707" stroke-linecap="round" stroke-linejoin="round"/>
<path d="M40.8616 470.839L42.4928 466.949C42.5784 466.755 42.7025 466.581 42.8576 466.437C43.0126 466.293 43.1954 466.181 43.3947 466.11C43.5941 466.038 43.8059 466.008 44.0172 466.021C44.2286 466.034 44.4352 466.09 44.6244 466.185C44.9636 466.355 45.2291 466.643 45.3711 466.995C45.513 467.347 45.5217 467.739 45.3954 468.097L45.2549 468.635" stroke="#070707" stroke-linecap="round" stroke-linejoin="round"/>
<path d="M45.8752 472.422L46.9444 468.491C47.0048 468.288 47.1057 468.1 47.2411 467.938C47.3764 467.775 47.5433 467.642 47.7317 467.546C47.9201 467.449 48.1261 467.393 48.3371 467.378C48.5481 467.364 48.7598 467.393 48.9594 467.463C49.6996 467.72 50.1862 468.436 50.0731 469.475" stroke="#070707" stroke-linecap="round" stroke-linejoin="round"/>
<path d="M120.009 208.068C123.779 222.118 125.078 269.344 126.298 338.937C127.182 389.436 131.572 461.319 131.572 461.319C131.572 461.319 120.037 466.329 99.6432 462.436C99.6432 462.436 80.1099 398.082 87.0699 351.195C88.1836 343.684 77.6254 299.192 77.6254 299.192C77.6254 299.192 35.5911 450.939 35.5911 463.361C35.5911 463.361 19.2071 466.514 9.47128 463.361C9.47128 463.361 -5.2301 394.23 18.0933 353.968C30.6529 332.286 27.7743 252.984 28.1033 246.596C29.2582 224.054 40.2893 207.064 40.2893 207.064L120.009 208.068Z" fill="#FFE194" stroke="black" stroke-linecap="round" stroke-linejoin="round"/>
<path d="M77.6254 299.751C76.234 293.63 68.9862 249.376 67.0397 247.693C65.0932 246.01 61.7554 243.8 59.5279 241.573" stroke="#070707" stroke-linecap="round" stroke-linejoin="round"/>
<path d="M121.318 214.945C92.1485 230.49 47.8628 222.886 37.308 212.488C38.2102 210.641 39.2053 208.841 40.2894 207.094L120.009 208.088C120.579 210.346 121.017 212.636 121.318 214.945Z" fill="#1C0E0C"/>
<path d="M42.0542 181.417C41.8229 182.921 41.4955 184.409 41.0741 185.872C29.57 185.687 19.4024 184.004 14.5157 179.316C0.307767 165.677 10.9894 132.333 11.6576 130.312C16.6301 133.618 23.782 137.313 33.9736 140.733C38.569 159.262 42.767 176.485 42.0542 181.417Z" fill="#FCBE9F" stroke="#070707" stroke-linecap="round" stroke-linejoin="round"/>
<path d="M11.6576 130.301C16.6301 133.608 23.782 137.302 33.9736 140.722C35.0325 144.996 36.0708 149.197 37.0304 153.193C23.3228 147.069 16.3765 139.766 10.3794 134.773L11.6576 130.301Z" fill="#1C0E0C"/>
<path d="M222.751 69.09C222.066 68.1956 220.904 68.014 220.671 67.6439C220.438 67.2738 220.52 66.3417 219.831 65.742C219.142 65.1423 218.142 65.2348 217.713 64.8852C217.285 64.5357 217.576 63.5145 216.764 62.6406C215.952 61.7668 214.783 61.8764 214.523 61.6126C214.263 61.3487 218.81 53.4291 217.076 52.4045C215.342 51.3798 206.487 62.6098 204.739 65.2416C201.141 70.6664 201.103 77.4757 200.627 79.9156C200.591 79.9416 200.557 79.9715 200.528 80.0047C199.136 81.6736 166.313 114.219 160.474 125.065L155.272 117.183L125.431 138.306C125.431 138.306 147.123 169.834 166.313 163.162C184.476 156.846 205.126 95.4771 208.941 87.0298C215.205 85.7927 220.441 78.8327 222.151 75.6594C224.382 71.5677 223.436 69.9879 222.751 69.09Z" fill="#FCBE9F" stroke="#070707" stroke-linecap="round" stroke-linejoin="round"/>
<path d="M156.742 119.4C151.746 130.926 143.199 140.554 132.346 146.881C129.879 144.164 127.575 141.303 125.448 138.313L155.289 117.19L156.742 119.4Z" fill="#1C0E0C"/>
<path d="M33.9736 140.726C38.569 159.262 42.767 176.485 42.0542 181.417C40.5532 191.763 32.2361 204.507 36.1359 207.482C47.0575 215.809 82.3099 224.462 122.836 210.223C122.836 210.223 117.645 200.436 123.258 161.345C124.091 155.568 125.18 147.525 126.294 138.68H126.315C144.529 132.275 158.647 113.256 158.647 113.256C158.647 113.256 149.806 89.7474 140.039 81.821C133.871 76.8177 101.912 67.8529 99.3039 66.3314L61.3819 65.8276C58.8528 66.0435 31.7701 74.6245 20.6361 82.825C10.5028 90.2888 1 120.075 1 120.075C1 120.075 6.22944 131.405 33.9736 140.726Z" fill="#1B9C85" stroke="#070707" stroke-linecap="round" stroke-linejoin="round"/>
<path d="M60.2442 66.0436C63.2667 64.6317 73.8352 53.765 72.1663 40.6434L95.668 43.3164C95.668 43.3164 98.0154 59.625 101.905 67.853C93.6588 69.9368 85.1774 70.9424 76.6727 70.8447C62.6498 70.6733 60.2442 66.0436 60.2442 66.0436Z" fill="#FCBE9F" stroke="#070707" stroke-linecap="round" stroke-linejoin="round"/>
<path d="M98.9509 59.6661C96.5864 59.3919 91.5523 58.3605 88.8827 55.8965C84.5374 51.887 78.4341 43.0251 78.3759 41.4042L95.668 43.3164C95.668 43.3164 97.121 51.4827 98.9509 59.6661Z" fill="#1C0E0C"/>
<path d="M84.0508 41.5447C84.0508 41.5447 87.7484 48.1346 91.5386 49.0839C95.3287 50.0331 104.016 49.2929 106.658 47.7131C108.289 46.7399 107.796 38.6558 107.48 35.719C107.422 35.1535 111.884 33.2653 111.593 31.545C111.288 29.7116 106.23 25.3766 105.767 22.9435C104.458 15.8121 102.683 9.0783 102.104 8.83156C101.154 8.41348 86.2817 9.3593 84.5203 13.4202C82.7589 17.481 84.9795 30.0543 84.9795 30.0543C84.9795 30.0543 80.1818 27.2511 78.7425 30.9967C76.6419 36.4729 84.0508 41.5447 84.0508 41.5447Z" fill="#FCBE9F" stroke="#070707" stroke-linecap="round" stroke-linejoin="round"/>
<path d="M111.857 4.27039C117.028 8.44434 109.256 25.6953 93.5022 13.4476" stroke="black" stroke-linecap="round" stroke-linejoin="round"/>
<path d="M55.5288 17.5907C58.565 12.1728 64.5346 16.7031 64.5346 16.7031" stroke="black" stroke-linecap="round" stroke-linejoin="round"/>
<path d="M107.073 34.756C107.073 34.756 101.247 39.4954 97.9606 39.8963C94.6742 40.2973 91.9464 30.421 90.9286 26.0585C88.6565 15.9218 88.9238 11.8678 98.3444 15.3255C110.767 19.8867 113.255 4.51709 108.461 1.93321C105.407 0.284875 103.93 0.795484 99.626 2.97842C94.8284 5.40123 84.6642 -2.63141 72.5844 0.922276C61.238 4.25322 62.9685 15.7059 62.9685 15.7059C62.9685 15.7059 58.493 14.8937 57.6808 21.4357C57.04 26.6103 64.2194 35.7772 69.7538 46.0305C71.3028 48.9057 78.8316 47.1888 80.6856 44.2896C80.6856 44.2896 83.1667 40.0574 80.0585 34.9205C77.5123 30.7123 81.8987 27.3162 86.2646 30.9864C85.6237 33.9301 84.2324 41.8805 86.8609 45.9825C90.7915 52.1167 111.055 53.0316 111.558 49.6219C112.062 46.2121 107.073 34.756 107.073 34.756Z" fill="#1C0E0C"/>
<path d="M89.0266 41.0821C86.7545 41.712 84.3251 41.4134 82.2731 40.2521C80.2211 39.0908 78.7144 37.1619 78.0846 34.8897C77.4547 32.6175 77.7533 30.1882 78.9146 28.1362C80.0759 26.0841 82.0048 24.5775 84.277 23.9476" fill="#FCBE9F"/>
<path d="M89.0266 41.0821C86.7545 41.712 84.3251 41.4134 82.2731 40.2521C80.2211 39.0908 78.7144 37.1619 78.0846 34.8897C77.4547 32.6175 77.7533 30.1882 78.9146 28.1362C80.0759 26.0841 82.0048 24.5775 84.277 23.9476" stroke="#070707" stroke-linecap="round" stroke-linejoin="round"/>
<path d="M81.2305 31.4765C81.2305 31.4765 84.7773 29.1702 87.4366 33.2482L81.2305 31.4765Z" fill="#FCBE9F"/>
<path d="M81.2305 31.4765C81.2305 31.4765 84.7773 29.1702 87.4366 33.2482" stroke="#070707" stroke-linecap="round" stroke-linejoin="round"/>
<path d="M85.2194 31.192L83.3928 34.756" stroke="#070707" stroke-linecap="round" stroke-linejoin="round"/>
<path d="M101.772 27.4753C102.537 27.3258 102.975 26.2696 102.75 25.116C102.524 23.9625 101.721 23.1485 100.956 23.298C100.191 23.4474 99.7529 24.5037 99.9782 25.6572C100.203 26.8108 101.006 27.6247 101.772 27.4753Z" fill="#1C0E0C"/>
<path d="M99.7494 18.6264L96.4902 20.3872C95.8874 20.7128 95.6627 21.4655 95.9884 22.0682C96.314 22.671 97.0667 22.8957 97.6695 22.57L100.929 20.8092C101.531 20.4836 101.756 19.7309 101.43 19.1282C101.105 18.5254 100.352 18.3007 99.7494 18.6264Z" fill="#1C0E0C"/>
<path d="M24.6559 105.473L33.9736 140.726" stroke="#070707" stroke-linecap="round" stroke-linejoin="round"/>
<path d="M139.354 84.8092C139.354 84.8092 119.447 86.0223 116.394 107.601" stroke="#070707" stroke-linecap="round" stroke-linejoin="round"/>
</svg>
