<svg width="478" height="351" viewBox="0 0 478 351" fill="none" xmlns="http://www.w3.org/2000/svg">
<path d="M461.704 1.00002H50.8212C46.4943 1.00002 42.9866 4.29532 42.9866 8.36029V301.946C42.9866 306.011 46.4943 309.306 50.8212 309.306H461.704C466.031 309.306 469.539 306.011 469.539 301.946V8.36029C469.539 4.29532 466.031 1.00002 461.704 1.00002Z" fill="#F4F1ED" stroke="#070707" stroke-linecap="round" stroke-linejoin="round"/>
<path d="M42.9866 24.1H469.539" stroke="#070707" stroke-linecap="round" stroke-linejoin="round"/>
<path d="M43 10C43 5.02944 47.0294 1 52 1H461C465.971 1 470 5.02944 470 10V24H43V10Z" fill="#FFE194" stroke="black"/>
<path d="M96.1933 10.5136H92.5123C91.2896 10.5136 90.2983 11.4449 90.2983 12.5936V16.0517C90.2983 17.2004 91.2896 18.1317 92.5123 18.1317H96.1933C97.416 18.1317 98.4073 17.2004 98.4073 16.0517V12.5936C98.4073 11.4449 97.416 10.5136 96.1933 10.5136Z" fill="#1C0E0C"/>
<path d="M82.3603 10.5136H78.6793C77.4566 10.5136 76.4653 11.4449 76.4653 12.5936V16.0517C76.4653 17.2004 77.4566 18.1317 78.6793 18.1317H82.3603C83.583 18.1317 84.5743 17.2004 84.5743 16.0517V12.5936C84.5743 11.4449 83.583 10.5136 82.3603 10.5136Z" fill="#1C0E0C"/>
<path d="M68.5294 10.5136H64.8484C63.6256 10.5136 62.6344 11.4449 62.6344 12.5936V16.0517C62.6344 17.2004 63.6256 18.1317 64.8484 18.1317H68.5294C69.7521 18.1317 70.7434 17.2004 70.7434 16.0517V12.5936C70.7434 11.4449 69.7521 10.5136 68.5294 10.5136Z" fill="#1C0E0C"/>
<path d="M94.5217 9.11575H90.8407C89.618 9.11575 88.6267 10.047 88.6267 11.1957V14.6538C88.6267 15.8025 89.618 16.7338 90.8407 16.7338H94.5217C95.7445 16.7338 96.7357 15.8025 96.7357 14.6538V11.1957C96.7357 10.047 95.7445 9.11575 94.5217 9.11575Z" fill="#C5DCDD" stroke="black" stroke-linecap="round" stroke-linejoin="round"/>
<path d="M80.6886 9.11575H77.0077C75.7849 9.11575 74.7937 10.047 74.7937 11.1957V14.6538C74.7937 15.8025 75.7849 16.7338 77.0077 16.7338H80.6886C81.9114 16.7338 82.9027 15.8025 82.9027 14.6538V11.1957C82.9027 10.047 81.9114 9.11575 80.6886 9.11575Z" fill="#FFBF00" stroke="black" stroke-linecap="round" stroke-linejoin="round"/>
<path d="M66.8556 9.11575H63.1747C61.9519 9.11575 60.9607 10.047 60.9607 11.1957V14.6538C60.9607 15.8025 61.9519 16.7338 63.1747 16.7338H66.8556C68.0784 16.7338 69.0697 15.8025 69.0697 14.6538V11.1957C69.0697 10.047 68.0784 9.11575 66.8556 9.11575Z" fill="#F46F40" stroke="black" stroke-linecap="round" stroke-linejoin="round"/>
<path d="M1 281.13C2.58216 279.651 4.72373 278.82 6.95618 278.82C9.18862 278.82 11.3302 279.651 12.9123 281.13C14.4946 282.611 16.6366 283.442 18.8696 283.442C21.1025 283.442 23.2446 282.611 24.8268 281.13L25.7006 280.313C27.2828 278.834 29.4243 278.003 31.6568 278.003C33.8892 278.003 36.0308 278.834 37.613 280.313L38.9131 281.529C40.4953 283.009 42.6368 283.839 44.8693 283.839C47.1017 283.839 49.2433 283.009 50.8255 281.529L51.8977 280.526C53.4799 279.045 55.6219 278.214 57.8549 278.214C60.0878 278.214 62.2299 279.045 63.8121 280.526" stroke="#070707" stroke-linecap="round" stroke-linejoin="round"/>
<path d="M51.8955 280.555C53.4778 279.075 55.6198 278.244 57.8528 278.244C60.0857 278.244 62.2278 279.075 63.81 280.555L65.0215 281.69C66.6037 283.17 68.7458 284.001 70.9787 284.001C73.2117 284.001 75.3537 283.17 76.936 281.69L77.6747 280.999C79.2568 279.52 81.3984 278.689 83.6308 278.689C85.8633 278.689 88.0049 279.52 89.587 280.999C91.1693 282.48 93.3113 283.311 95.5443 283.311C97.7772 283.311 99.9192 282.48 101.501 280.999L102.373 280.181C103.955 278.7 106.097 277.869 108.33 277.869C110.563 277.869 112.705 278.7 114.288 280.181L115.588 281.398C117.17 282.878 119.312 283.708 121.544 283.708C123.776 283.708 125.918 282.878 127.5 281.398L128.572 280.393C130.155 278.913 132.297 278.081 134.53 278.081C136.763 278.081 138.905 278.913 140.487 280.393" stroke="#070707" stroke-linecap="round" stroke-linejoin="round"/>
<path d="M1 287.261C2.58216 285.782 4.72373 284.951 6.95618 284.951C9.18862 284.951 11.3302 285.782 12.9123 287.261C14.4946 288.742 16.6366 289.573 18.8696 289.573C21.1025 289.573 23.2446 288.742 24.8268 287.261L25.7112 286.436C27.2933 284.957 29.4349 284.126 31.6673 284.126C33.8998 284.126 36.0414 284.957 37.6235 286.436L38.9237 287.652C40.5058 289.132 42.6474 289.962 44.8798 289.962C47.1123 289.962 49.2538 289.132 50.836 287.652L51.9082 286.649C53.4904 285.168 55.6325 284.337 57.8654 284.337C60.0984 284.337 62.2404 285.168 63.8227 286.649" stroke="#070707" stroke-linecap="round" stroke-linejoin="round"/>
<path d="M51.8955 286.686C53.4778 285.206 55.6198 284.375 57.8528 284.375C60.0857 284.375 62.2278 285.206 63.81 286.686L65.0215 287.82C66.6037 289.301 68.7458 290.132 70.9787 290.132C73.2117 290.132 75.3537 289.301 76.936 287.82L77.6747 287.13C79.2568 285.651 81.3984 284.82 83.6308 284.82C85.8633 284.82 88.0049 285.651 89.587 287.13C91.1693 288.611 93.3113 289.442 95.5443 289.442C97.7772 289.442 99.9192 288.611 101.501 287.13L102.373 286.311C103.955 284.831 106.097 284 108.33 284C110.563 284 112.705 284.831 114.288 286.311L115.588 287.529C117.17 289.009 119.312 289.839 121.544 289.839C123.776 289.839 125.918 289.009 127.5 287.529L128.572 286.524C130.155 285.043 132.297 284.212 134.53 284.212C136.763 284.212 138.905 285.043 140.487 286.524" stroke="#070707" stroke-linecap="round" stroke-linejoin="round"/>
<path d="M358.746 62.0851C360.543 62.0851 361.999 60.7171 361.999 59.0296C361.999 57.342 360.543 55.974 358.746 55.974C356.95 55.974 355.494 57.342 355.494 59.0296C355.494 60.7171 356.95 62.0851 358.746 62.0851Z" stroke="#070707" stroke-linecap="round" stroke-linejoin="round"/>
<path d="M345.677 52.8035C348.244 52.8035 350.325 50.8487 350.325 48.4373C350.325 46.0259 348.244 44.0711 345.677 44.0711C343.11 44.0711 341.03 46.0259 341.03 48.4373C341.03 50.8487 343.11 52.8035 345.677 52.8035Z" fill="#EFAF00" stroke="black" stroke-linecap="round" stroke-linejoin="round"/>
<path d="M403.629 156.408C421.109 156.408 435.28 143.096 435.28 126.674C435.28 110.252 421.109 96.9393 403.629 96.9393C386.148 96.9393 371.978 110.252 371.978 126.674C371.978 143.096 386.148 156.408 403.629 156.408Z" fill="#1C0E0C"/>
<path d="M403.629 153.422C421.109 153.422 435.28 140.11 435.28 123.688C435.28 107.266 421.109 93.9531 403.629 93.9531C386.148 93.9531 371.978 107.266 371.978 123.688C371.978 140.11 386.148 153.422 403.629 153.422Z" fill="#F4F1ED" stroke="#070707" stroke-linecap="round" stroke-linejoin="round"/>
<path d="M409.545 140.143H391.419L394.544 116.159H412.668L409.545 140.143Z" fill="#F4F1ED"/>
<path d="M417.523 140.143H409.555L412.681 116.159H414.397L417.523 140.143Z" fill="#FFE194"/>
<path d="M416.218 139.85H408.371L411.641 114.759H412.949L416.218 139.85Z" stroke="#070707" stroke-linecap="round" stroke-linejoin="round"/>
<path d="M411.641 114.759L408.371 139.85H389.737L393.004 114.759H411.641Z" stroke="#070707" stroke-linecap="round" stroke-linejoin="round"/>
<path d="M404 107.232H405.288C405.68 107.232 406.069 107.305 406.431 107.446C406.794 107.587 407.123 107.794 407.401 108.054C407.678 108.315 407.899 108.625 408.049 108.965C408.199 109.306 408.276 109.671 408.276 110.04V114.771H401.009V110.04C401.009 109.671 401.087 109.306 401.237 108.965C401.387 108.624 401.608 108.315 401.885 108.054C402.163 107.793 402.493 107.586 402.856 107.445C403.219 107.304 403.607 107.232 404 107.232Z" stroke="#070707" stroke-linecap="round" stroke-linejoin="round"/>
<path d="M401.877 107.232H403.164C403.557 107.232 403.945 107.305 404.308 107.446C404.671 107.587 405 107.794 405.278 108.054C405.555 108.315 405.775 108.625 405.925 108.965C406.076 109.306 406.153 109.671 406.153 110.04V114.771H398.886V110.04C398.886 109.295 399.201 108.581 399.761 108.054C400.322 107.528 401.082 107.232 401.875 107.232H401.877Z" stroke="#070707" stroke-linecap="round" stroke-linejoin="round"/>
<path d="M265.742 277.871C263.31 277.871 261.339 279.655 261.339 281.87V315.312C261.339 322.03 267.333 327.475 274.725 327.475H297.287C301.681 327.475 305.242 330.711 305.242 334.704" stroke="#070707" stroke-linecap="round" stroke-linejoin="round"/>
<path d="M251.957 277.871C254.387 277.871 256.358 279.655 256.358 281.87V315.312C256.358 322.03 250.366 327.475 242.972 327.475H220.41C216.018 327.475 212.455 330.711 212.455 334.704" stroke="#070707" stroke-linecap="round" stroke-linejoin="round"/>
<path d="M258.848 274.547C317.593 274.547 365.215 232.223 365.215 180.014C365.215 127.805 317.593 85.4805 258.848 85.4805C200.104 85.4805 152.481 127.805 152.481 180.014C152.481 232.223 200.104 274.547 258.848 274.547Z" fill="#F4F1ED" stroke="#070707" stroke-linecap="round" stroke-linejoin="round"/>
<path d="M258.848 257.664C310.906 257.664 353.107 220.157 353.107 173.891C353.107 127.625 310.906 90.1183 258.848 90.1183C206.791 90.1183 164.59 127.625 164.59 173.891C164.59 220.157 206.791 257.664 258.848 257.664Z" fill="#EAE5DF"/>
<path d="M323.366 224.985C327.313 225.538 328.854 230.106 325.975 232.702C308.879 248.11 285.119 257.664 258.857 257.664C232.63 257.664 208.905 248.146 191.819 232.783C188.936 230.191 190.473 225.621 194.417 225.064C214.234 222.256 236.138 220.702 259.169 220.702C281.981 220.7 303.693 222.226 323.366 224.985Z" fill="#FFFBF8" stroke="#070707" stroke-linecap="round" stroke-linejoin="round"/>
<path d="M212.594 350C217.09 350 220.735 346.576 220.735 342.352C220.735 338.128 217.09 334.704 212.594 334.704C208.098 334.704 204.453 338.128 204.453 342.352C204.453 346.576 208.098 350 212.594 350Z" stroke="#070707" stroke-linecap="round" stroke-linejoin="round"/>
<path d="M259.249 350C263.745 350 267.39 346.576 267.39 342.352C267.39 338.128 263.745 334.704 259.249 334.704C254.753 334.704 251.109 338.128 251.109 342.352C251.109 346.576 254.753 350 259.249 350Z" stroke="#070707" stroke-linecap="round" stroke-linejoin="round"/>
<path d="M305.345 350C309.841 350 313.486 346.576 313.486 342.352C313.486 338.128 309.841 334.704 305.345 334.704C300.849 334.704 297.205 338.128 297.205 342.352C297.205 346.576 300.849 350 305.345 350Z" stroke="#070707" stroke-linecap="round" stroke-linejoin="round"/>
<path d="M434.621 212.735C423.323 228.796 402.029 237.587 392.62 232.616C383.525 227.81 382.731 204.135 394.032 188.064C405.332 171.993 424.214 164.486 435.199 171.299C446.185 178.112 445.921 196.662 434.621 212.735Z" fill="#FFE194" stroke="black" stroke-linecap="round" stroke-linejoin="round"/>
<path d="M393.878 286.76C393.878 286.76 382.497 200.029 435.119 171.692" stroke="#070707" stroke-linecap="round" stroke-linejoin="round"/>
<path d="M442.572 191.046L411.06 194.068" stroke="#070707" stroke-linecap="round" stroke-linejoin="round"/>
<path d="M442.141 194.171L409.07 197.342" stroke="#070707" stroke-linecap="round" stroke-linejoin="round"/>
<path d="M394.407 188.239L402.415 210.47" stroke="#070707" stroke-linecap="round" stroke-linejoin="round"/>
<path d="M476.39 257.037C472.897 265.504 457.587 267.826 442.198 262.22C426.81 256.615 420.87 245.481 421.544 241.781C422.388 237.117 440.556 229.154 454.851 231.556C471.097 234.288 479.885 248.564 476.39 257.037Z" fill="#FFE194" stroke="black" stroke-linecap="round" stroke-linejoin="round"/>
<path d="M384.466 286.76C384.466 286.76 383.086 248.662 425.913 240.841C449.362 236.56 467.492 247.63 475.816 257.017" stroke="#070707" stroke-linecap="round" stroke-linejoin="round"/>
<path d="M449.321 241.438L463.944 235.143" stroke="#070707" stroke-linecap="round" stroke-linejoin="round"/>
<path d="M452.971 242.531L466.588 236.544" stroke="#070707" stroke-linecap="round" stroke-linejoin="round"/>
<path d="M443.27 240.334L448.969 263.666" stroke="#070707" stroke-linecap="round" stroke-linejoin="round"/>
<path d="M375.885 230.156C382.835 240.01 381.746 253.968 376.096 257.211C372.668 259.18 358.257 255.625 351.308 245.767C344.36 235.908 344.383 224.086 351.114 219.897C357.845 215.707 368.936 220.301 375.885 230.156Z" fill="#FFE194" stroke="black" stroke-linecap="round" stroke-linejoin="round"/>
<path d="M379.346 286.76C379.346 286.76 383.251 237.488 351.317 220.408" stroke="#070707" stroke-linecap="round" stroke-linejoin="round"/>
<path d="M346.872 234.794H367.02" stroke="#070707" stroke-linecap="round" stroke-linejoin="round"/>
<path d="M347.887 238.067H369.01" stroke="#070707" stroke-linecap="round" stroke-linejoin="round"/>
<path d="M376.364 231.514L372.742 245.086" stroke="#070707" stroke-linecap="round" stroke-linejoin="round"/>
<path d="M415.676 295.173V329.436C415.677 330.541 415.446 331.636 414.996 332.657C414.547 333.679 413.887 334.607 413.055 335.388C412.223 336.17 411.235 336.789 410.148 337.212C409.06 337.634 407.895 337.851 406.719 337.849H370.249C369.073 337.85 367.908 337.633 366.82 337.211C365.733 336.789 364.745 336.169 363.913 335.388C363.082 334.606 362.422 333.678 361.972 332.657C361.522 331.636 361.291 330.541 361.292 329.436V295.173C361.293 292.942 362.238 290.802 363.917 289.225C365.597 287.647 367.874 286.761 370.249 286.76H406.719C409.094 286.76 411.371 287.647 413.051 289.224C414.731 290.802 415.675 292.941 415.676 295.173Z" fill="#F4F1ED" stroke="#070707" stroke-linecap="round" stroke-linejoin="round"/>
<path d="M406.999 286.76H369.966C365.175 286.76 361.292 290.408 361.292 294.909V329.7C361.292 334.201 365.175 337.849 369.966 337.849H406.999C411.79 337.849 415.674 334.201 415.674 329.7V294.909C415.674 290.408 411.79 286.76 406.999 286.76Z" stroke="#FFC3D5" stroke-miterlimit="10"/>
<path d="M415.676 295.173V329.436C415.677 330.541 415.446 331.636 414.996 332.657C414.547 333.679 413.887 334.607 413.055 335.388C412.223 336.17 411.235 336.789 410.148 337.212C409.06 337.634 407.895 337.851 406.719 337.849H370.249C369.073 337.85 367.908 337.633 366.82 337.211C365.733 336.789 364.745 336.169 363.913 335.388C363.082 334.606 362.422 333.678 361.972 332.657C361.522 331.636 361.291 330.541 361.292 329.436V295.173C361.293 292.942 362.238 290.802 363.917 289.225C365.597 287.647 367.874 286.761 370.249 286.76H406.719C409.094 286.76 411.371 287.647 413.051 289.224C414.731 290.802 415.675 292.941 415.676 295.173Z" stroke="#070707" stroke-linecap="round" stroke-linejoin="round"/>
<path d="M115.797 107.881C134.259 107.881 149.225 93.8204 149.225 76.4764C149.225 59.1325 134.259 45.0724 115.797 45.0724C97.335 45.0724 82.3687 59.1325 82.3687 76.4764C82.3687 93.8204 97.335 107.881 115.797 107.881Z" fill="#1C0E0C"/>
<path d="M115.797 103.915C134.259 103.915 149.225 89.8548 149.225 72.5108C149.225 55.1668 134.259 41.1067 115.797 41.1067C97.3349 41.1067 82.3687 55.1668 82.3687 72.5108C82.3687 89.8548 97.3349 103.915 115.797 103.915Z" fill="#F4F1ED" stroke="#070707" stroke-linecap="round" stroke-linejoin="round"/>
<path d="M106.816 81.8281H129.52L134.066 68.0137H102.289L106.816 81.8281Z" fill="#FFE194"/>
<path d="M90.8893 61.7083H95.6889C96.4048 61.7084 97.1019 61.9239 97.6781 62.3231C98.2543 62.7224 98.6792 63.2845 98.8907 63.9271L104.61 81.3047H127.726L128.868 85.653C128.953 85.979 128.959 86.3189 128.884 86.6472C128.809 86.9754 128.655 87.2833 128.435 87.5475C128.214 87.8117 127.933 88.0254 127.611 88.1722C127.29 88.3191 126.937 88.3954 126.58 88.3953H105.573" stroke="#070707" stroke-linecap="round" stroke-linejoin="round"/>
<path d="M104.591 81.3047H127.654L132.431 66.7943H99.8341L104.591 81.3047Z" stroke="#070707" stroke-linecap="round" stroke-linejoin="round"/>
<path d="M119.176 81.3047L123.952 66.7943" stroke="#070707" stroke-linecap="round" stroke-linejoin="round"/>
<path d="M114.026 81.3047L109.25 66.7943" stroke="#070707" stroke-linecap="round" stroke-linejoin="round"/>
<path d="M102.067 73.5776H130.2" stroke="#070707" stroke-linecap="round" stroke-linejoin="round"/>
<path d="M108.293 94.4548C109.582 94.4548 110.626 93.4738 110.626 92.2638C110.626 91.0537 109.582 90.0727 108.293 90.0727C107.005 90.0727 105.961 91.0537 105.961 92.2638C105.961 93.4738 107.005 94.4548 108.293 94.4548Z" stroke="#070707" stroke-linecap="round" stroke-linejoin="round"/>
<path d="M125.252 94.4548C126.54 94.4548 127.585 93.4738 127.585 92.2638C127.585 91.0537 126.54 90.0727 125.252 90.0727C123.964 90.0727 122.92 91.0537 122.92 92.2638C122.92 93.4738 123.964 94.4548 125.252 94.4548Z" stroke="#070707" stroke-linecap="round" stroke-linejoin="round"/>
<path d="M116.086 50.2V61.4169" stroke="#070707" stroke-linecap="round" stroke-linejoin="round"/>
<path d="M110.258 56.5768L116.031 61.9998L121.5 56.8623" stroke="#070707" stroke-linecap="round" stroke-linejoin="round"/>
<path d="M296.251 164.558C296.251 164.558 318.737 199.539 308.492 216.266C298.247 232.993 280.197 239.207 258.851 237.05C204.772 231.587 138.195 192.48 139.873 179.863C142.137 162.839 241.704 182.352 241.704 182.352L250.568 164.728L296.251 164.558Z" fill="#FFE194" stroke="black" stroke-linecap="round" stroke-linejoin="round"/>
<path d="M140.508 177.859C137.502 180.765 115.552 221.195 248.05 250.611L253.025 242.021C253.025 242.021 164.25 154.888 140.508 177.859Z" fill="#FFE194" stroke="black" stroke-linecap="round" stroke-linejoin="round"/>
<path d="M253.207 242.021C253.207 242.021 208.757 198.399 174.352 181.019" stroke="#4B556A" stroke-miterlimit="10"/>
<path d="M248.05 250.611C254.171 251.638 280.174 260.083 285.93 258.956C291.685 257.83 282.553 241.785 278.965 241.111C275.377 240.437 257.647 242.314 253.032 242.021C248.416 241.728 248.05 250.611 248.05 250.611Z" fill="#C48270" stroke="#0F0F0F" stroke-linecap="round" stroke-linejoin="round"/>
<path d="M279.524 214.658C256.451 260.36 190.728 312.487 190.728 312.487C190.728 312.487 185.762 308.448 179.527 308.198C179.527 308.198 238.337 185.33 271.55 179.369C298.404 174.541 283.401 206.972 279.524 214.658Z" fill="#FFE194" stroke="black" stroke-linecap="round" stroke-linejoin="round"/>
<path d="M179.508 307.906C173.647 316.688 164.58 335.153 158.891 341.555C157.042 343.635 173.366 344.254 175.844 342.402C179.248 339.858 179.508 330.338 186.268 329.117C190.998 328.266 195.739 325.3 193.533 321.017C190.426 314.989 190.878 312.136 190.878 312.136C185.53 306.53 179.508 307.906 179.508 307.906Z" fill="#C48270" stroke="#0F0F0F" stroke-linecap="round" stroke-linejoin="round"/>
<path d="M252.324 98.7298C263.116 115.29 248.914 153.654 242.379 159.385C230.277 170.011 177.522 168.506 177.522 168.506L175.38 163.945C175.38 163.945 204.453 149.052 227.656 147.87C227.656 147.87 233.846 117.977 235.9 109.403C238.487 98.5989 244.876 87.2988 252.324 98.7298Z" fill="#C48270" stroke="#0F0F0F" stroke-linecap="round" stroke-linejoin="round"/>
<path d="M181.327 164.342C180.164 161.605 170.204 163.318 166.247 165.046C162.88 166.515 158.809 170.459 158.144 171.293C157.479 172.128 156 176.344 156 176.344C156 176.344 157.433 177.767 159.364 175.285C161.295 172.802 166.304 169.959 167.547 170.582C170.342 171.983 163.571 172.535 162.83 173.542C162.089 174.549 162.441 175.148 162.441 175.148C162.441 175.148 168.805 174.876 169.829 174.751C170.852 174.627 174.909 172.901 176.893 171.339C178.877 169.777 182.053 166.047 181.327 164.342Z" fill="#E38E32"/>
<path d="M295.238 88.7105C298.505 89.6206 308.746 93.2016 308.746 93.2016C308.746 93.2016 307.878 116.452 304.974 121.953C292.808 144.997 296.595 166.229 296.595 166.229C296.595 166.229 267.785 170.734 250.161 166.39C250.161 166.39 252.466 148.858 248.701 146.76C244.935 144.662 238.768 139.949 240.469 130.459C242.17 120.969 241.782 96.0827 243.846 94.4746C245.91 92.8665 255.032 88.6828 257.388 88.6907C259.743 88.6986 295.238 88.7105 295.238 88.7105Z" fill="#1B9C85" stroke="#070707" stroke-linecap="round" stroke-linejoin="round"/>
<path d="M205.31 135.658H140.799C140.088 135.658 139.388 135.819 138.757 136.128C138.127 136.437 137.586 136.885 137.179 137.433C136.772 137.981 136.513 138.613 136.422 139.275C136.331 139.938 136.412 140.611 136.658 141.238L152.91 182.756H228.453L211.636 139.808C211.159 138.592 210.297 137.543 209.166 136.801C208.035 136.059 206.69 135.66 205.31 135.658Z" fill="#F9A09B" stroke="black" stroke-linecap="round" stroke-linejoin="round"/>
<path d="M204.042 137.764H141.145C140.452 137.764 139.769 137.921 139.155 138.223C138.54 138.524 138.012 138.96 137.615 139.495C137.219 140.029 136.965 140.645 136.877 141.291C136.788 141.937 136.866 142.593 137.106 143.205L152.961 183.69H226.621L210.222 141.811C209.756 140.623 208.914 139.598 207.809 138.875C206.704 138.151 205.389 137.763 204.042 137.764Z" fill="#F9A09B" stroke="black" stroke-linecap="round" stroke-linejoin="round"/>
<path d="M152.95 182.891H259.779C260.988 182.891 262.148 183.342 263.003 184.145C263.858 184.949 264.338 186.038 264.338 187.174V188.118H157.509C156.3 188.118 155.14 187.667 154.285 186.863C153.43 186.06 152.95 184.971 152.95 183.835V182.891Z" fill="#E8F6EF" stroke="black" stroke-linecap="round" stroke-linejoin="round"/>
<path d="M205.31 135.658H140.799C140.088 135.658 139.388 135.819 138.757 136.128C138.127 136.437 137.586 136.885 137.179 137.433C136.772 137.981 136.513 138.613 136.422 139.275C136.331 139.938 136.412 140.611 136.658 141.238L152.91 182.756H228.453L211.636 139.808C211.159 138.592 210.297 137.543 209.166 136.801C208.035 136.059 206.69 135.66 205.31 135.658Z" fill="#E8F6EF" stroke="black" stroke-linecap="round" stroke-linejoin="round"/>
<path d="M183.05 164.354C184.579 162.759 184.121 160.03 182.027 158.259C179.933 156.488 176.997 156.346 175.468 157.941C173.939 159.536 174.397 162.265 176.491 164.036C178.584 165.807 181.521 165.949 183.05 164.354Z" fill="#E8F6EF" stroke="black" stroke-linecap="round" stroke-linejoin="round"/>
<path d="M238.669 184.759H234.154V186.282H238.669V184.759Z" fill="#F9A09B" stroke="black" stroke-linecap="round" stroke-linejoin="round"/>
<path d="M247.295 184.759H242.78V186.282H247.295V184.759Z" fill="#F9A09B" stroke="black" stroke-linecap="round" stroke-linejoin="round"/>
<path d="M263.082 43.3255C263.082 43.3255 247.525 36.4689 237.884 50.8424C228.219 65.2497 241.472 71.6622 234.549 79.0185C227.058 86.9815 217.575 91.6451 225.262 107.424C233.097 123.515 213.118 117.583 217.438 135.495H251.313C251.313 135.495 265.887 130.703 261.514 118.895C257.141 107.087 247.77 105.454 256.552 95.0358C263.148 87.2135 293.577 88.8077 296.31 89.4838C299.043 90.16 310.689 93.9036 310.689 93.9036C310.689 93.9036 315.32 80.8863 308.697 73.7164C300.316 64.6469 286.339 71.337 283.792 60.6912C282.069 53.5133 278.726 45.1775 273.171 43.6011C267.202 41.9078 263.082 43.3255 263.082 43.3255Z" fill="#1C0E0C"/>
<path d="M261.698 45.1259C261.698 45.1259 258.426 40.3532 241.816 51.233C231.55 57.9588 238.726 71.6562 231.803 79.0125C224.312 86.9755 214.831 91.6391 222.516 107.419C230.351 123.509 210.372 117.577 214.692 135.489" stroke="#070707" stroke-linecap="round" stroke-linejoin="round"/>
<path d="M274.948 68.3349C274.948 68.3349 274.429 79.1751 278.64 84.7369C281.504 88.5142 278.931 88.1969 288.918 89.2756C288.918 89.2756 289.961 103.193 266.837 103.193C249.678 103.193 256.548 95.0357 256.548 95.0357C256.548 95.0357 263.711 85.2861 260.623 68.3349H274.948Z" fill="#C48270" stroke="#0F0F0F" stroke-linecap="round" stroke-linejoin="round"/>
<path d="M275.174 67.4922C275.174 67.4922 275.617 89.2756 257.075 89.2756C256.7 89.2743 256.33 89.1937 255.993 89.0397C256.968 88.4012 263.055 83.6979 260.051 67.2107H275.174C275.174 67.2107 275.174 67.3059 275.174 67.4843V67.4922Z" fill="#1C0E0C"/>
<path d="M275.681 67.1353C275.681 67.1353 273.025 85.7581 260.436 85.8473C252.156 85.9048 247.373 74.9973 245.433 69.2788C243.219 62.7493 245.566 49.6983 257.377 49.8629C267.635 50.0076 272.996 63.1479 272.996 63.1479L275.681 67.1353Z" fill="#C48270" stroke="#0F0F0F" stroke-linecap="round" stroke-linejoin="round"/>
<path d="M273.26 66.1915C273.26 66.1915 272.757 64.5795 273.222 63.1241C273.517 62.2021 274.203 61.3395 275.651 60.9985" stroke="#070707" stroke-linecap="round" stroke-linejoin="round"/>
<path d="M275.651 64.1829L273.222 63.1241" stroke="#070707" stroke-linecap="round" stroke-linejoin="round"/>
<path d="M294.457 94.895C294.457 94.895 287.2 112.566 298.807 122.06C302.549 125.119 308.072 122.323 308.072 122.323" fill="#C48270"/>
<path d="M294.457 94.895C294.457 94.895 287.2 112.566 298.807 122.06C302.549 125.119 308.072 122.323 308.072 122.323" stroke="#0F0F0F" stroke-linecap="round" stroke-linejoin="round"/>
<path d="M299.902 112.82C304.039 125.125 309.524 142.521 309.524 142.521C287.764 143.631 254.956 156.03 250.961 157.566C244.329 158.954 234.939 163.999 233.135 165.012C231.446 165.914 228.791 168.414 227.989 169.418C227.145 170.465 225.18 174.234 225.18 174.234C225.598 174.428 226.074 174.485 226.531 174.395C226.988 174.305 227.399 174.074 227.7 173.738C228.474 172.945 229.775 171.034 230.817 170.104C229.872 172.334 228.987 174.638 228.987 174.638C228.987 174.638 231.332 175.178 234.338 174.266C235.777 173.829 237.369 171.236 239.053 169.529C240.737 167.821 244.412 168.629 248.091 168.044C251.769 167.459 254.323 162.391 254.323 162.391L254.273 162.307C263.823 162.456 314.052 162.763 324.993 153.158C331.536 147.422 323.056 110.064 312.264 93.505C307.517 86.224 300.445 87.2016 297.129 91.8374C296.021 93.3821 294.697 94.2843 294.642 96.4713" fill="#C48270"/>
<path d="M299.902 112.82C304.039 125.125 309.524 142.521 309.524 142.521C287.764 143.631 254.956 156.03 250.961 157.566C244.329 158.954 234.939 163.999 233.135 165.012C231.446 165.914 228.791 168.414 227.989 169.418C227.145 170.465 225.18 174.234 225.18 174.234C225.598 174.428 226.074 174.485 226.531 174.395C226.988 174.305 227.399 174.074 227.7 173.738C228.474 172.945 229.775 171.034 230.817 170.104C229.872 172.334 228.987 174.638 228.987 174.638C228.987 174.638 231.332 175.178 234.338 174.266C235.777 173.829 237.369 171.236 239.053 169.529C240.737 167.821 244.412 168.629 248.091 168.044C251.769 167.459 254.323 162.391 254.323 162.391L254.273 162.307C263.823 162.456 314.052 162.763 324.993 153.158C331.536 147.422 323.056 110.064 312.264 93.505C307.517 86.224 300.445 87.2016 297.129 91.8374C296.021 93.3821 294.697 94.2843 294.642 96.4713" stroke="#0F0F0F" stroke-linecap="round" stroke-linejoin="round"/>
<path d="M230.864 174.787C230.822 174.793 230.78 174.789 230.741 174.773C230.714 174.764 230.688 174.749 230.667 174.73C230.646 174.711 230.629 174.688 230.618 174.662C230.607 174.636 230.602 174.609 230.603 174.581C230.603 174.554 230.61 174.527 230.623 174.502C230.906 173.871 233.418 168.325 234.523 167.574C236.442 166.269 238.941 164.558 238.941 164.558L239.203 164.895C239.203 164.895 236.702 166.608 234.785 167.911C233.941 168.49 231.786 172.981 231.033 174.652C231.019 174.687 230.996 174.717 230.967 174.741C230.937 174.764 230.902 174.78 230.864 174.787Z" stroke="#070707" stroke-linecap="round" stroke-linejoin="round"/>
<path d="M233.253 174.406C233.213 174.412 233.172 174.408 233.135 174.394C233.098 174.38 233.065 174.356 233.041 174.326C233.016 174.296 233.001 174.261 232.996 174.223C232.992 174.186 232.998 174.148 233.014 174.113C233.116 173.915 235.518 169.011 236.64 168.248C238.559 166.945 241.058 165.234 241.058 165.234L241.32 165.571C241.32 165.571 238.819 167.282 236.902 168.587C236.058 169.166 234.097 172.898 233.418 174.288C233.402 174.318 233.379 174.345 233.351 174.366C233.322 174.387 233.289 174.401 233.253 174.406Z" stroke="#070707" stroke-linecap="round" stroke-linejoin="round"/>
<path d="M272.207 71.4976C272.207 71.4976 272.162 95.464 285.98 97.195C299.799 98.926 310.74 90.3107 310.74 90.3107" fill="#1C0E0C"/>
<path d="M255.117 67.4546L254.37 73.2484L256.978 74.678" stroke="#070707" stroke-linecap="round" stroke-linejoin="round"/>
<path d="M260.56 67.5884C261.112 67.4064 261.352 66.7034 261.096 66.0184C260.84 65.3333 260.185 64.9255 259.633 65.1076C259.081 65.2896 258.841 65.9926 259.097 66.6776C259.353 67.3627 260.008 67.7705 260.56 67.5884Z" fill="#1C0E0C"/>
<path d="M251.222 69.8321C251.774 69.6501 252.014 68.9471 251.758 68.2621C251.502 67.577 250.847 67.1692 250.295 67.3513C249.743 67.5333 249.503 68.2363 249.759 68.9213C250.014 69.6064 250.67 70.0142 251.222 69.8321Z" fill="#1C0E0C"/>
<path d="M256.767 62.3587C256.767 62.3587 258.591 60.3144 262.521 62.095" stroke="#070707" stroke-linecap="round" stroke-linejoin="round"/>
<path d="M247.128 65.2179C247.128 65.2179 248.156 62.7275 251.947 63.7863" stroke="#070707" stroke-linecap="round" stroke-linejoin="round"/>
<path d="M252.835 48.931C252.835 48.931 258.941 46.5516 260.978 52.2284C263.015 57.9053 266.333 62.6462 273.025 59.3488C279.718 56.0513 276.979 51.7664 276.979 51.7664" fill="#1C0E0C"/>
<path d="M273.899 67.2186C276.306 67.2186 278.258 65.3854 278.258 63.1241C278.258 60.8627 276.306 59.0295 273.899 59.0295C271.492 59.0295 269.541 60.8627 269.541 63.1241C269.541 65.3854 271.492 67.2186 273.899 67.2186Z" fill="#C48270"/>
<path d="M272.245 65.6224C272.245 65.6224 271.74 64.0104 272.207 62.555C272.5 61.633 273.186 60.7704 274.634 60.4294" stroke="#070707" stroke-linecap="round" stroke-linejoin="round"/>
<path d="M274.634 63.6138L272.207 62.555" stroke="#070707" stroke-linecap="round" stroke-linejoin="round"/>
<path d="M271.981 58.7717C270.738 48.0982 259.431 41.9891 259.317 41.9494L264.762 42.2984C265.421 42.5086 271.692 43.3255 277.542 57.4809L271.981 58.7717Z" fill="#FFE194" stroke="black" stroke-linecap="round" stroke-linejoin="round"/>
<path d="M276.322 73.2258C279.189 72.8665 281.006 69.007 280.38 64.6055C279.755 60.2039 276.925 56.927 274.058 57.2863C271.191 57.6457 269.374 61.5051 270 65.9067C270.625 70.3083 273.455 73.5852 276.322 73.2258Z" fill="#FFE194" stroke="black" stroke-linecap="round" stroke-linejoin="round"/>
<path d="M278.132 73.0008C280.998 72.6415 282.815 68.782 282.19 64.3805C281.565 59.9789 278.734 56.702 275.868 57.0613C273.001 57.4206 271.184 61.2801 271.809 65.6817C272.434 70.0833 275.265 73.3602 278.132 73.0008Z" fill="#FFE194" stroke="black" stroke-linecap="round" stroke-linejoin="round"/>
<path d="M256.978 77.6146C256.978 77.6146 261.048 78.2729 262.871 74.4936" stroke="#070707" stroke-linecap="round" stroke-linejoin="round"/>
</svg>
