<svg width="85" height="76" viewBox="0 0 85 76" fill="none" xmlns="http://www.w3.org/2000/svg">
<ellipse cx="46.24" cy="37.74" rx="38.76" ry="37.74" fill="#1B9C85"/>
<path d="M75.16 37.74C75.16 58.0225 58.5672 74.48 38.08 74.48C17.5928 74.48 1 58.0225 1 37.74C1 17.4575 17.5928 1 38.08 1C58.5672 1 75.16 17.4575 75.16 37.74Z" stroke="black" stroke-width="2"/>
<path d="M51.3333 21C49.8304 21 48.3891 21.597 47.3264 22.6597C46.2637 23.7224 45.6667 25.1638 45.6667 26.6667C45.6692 27.065 45.7137 27.4619 45.7995 27.8509L32.9333 34.284C32.4026 33.6731 31.7473 33.1829 31.0113 32.8464C30.2754 32.5099 29.4759 32.335 28.6667 32.3333C27.1638 32.3333 25.7224 32.9304 24.6597 33.9931C23.597 35.0558 23 36.4971 23 38C23 39.5029 23.597 40.9442 24.6597 42.0069C25.7224 43.0696 27.1638 43.6667 28.6667 43.6667C29.4761 43.6658 30.276 43.4914 31.0125 43.1554C31.7489 42.8194 32.4048 42.3295 32.936 41.7187L45.7939 48.1491C45.71 48.5383 45.6674 48.9352 45.6667 49.3333C45.6667 50.8362 46.2637 52.2776 47.3264 53.3403C48.3891 54.403 49.8304 55 51.3333 55C52.8362 55 54.2776 54.403 55.3403 53.3403C56.403 52.2776 57 50.8362 57 49.3333C57 47.8304 56.403 46.3891 55.3403 45.3264C54.2776 44.2637 52.8362 43.6667 51.3333 43.6667C50.5239 43.6676 49.724 43.8419 48.9875 44.1779C48.2511 44.5139 47.5952 45.0038 47.064 45.6146L34.2061 39.1842C34.29 38.7951 34.3326 38.3981 34.3333 38C34.3306 37.6026 34.2861 37.2066 34.2005 36.8185L47.0667 30.3854C47.5976 30.9958 48.2531 31.4855 48.989 31.8215C49.725 32.1575 50.5243 32.332 51.3333 32.3333C52.8362 32.3333 54.2776 31.7363 55.3403 30.6736C56.403 29.6109 57 28.1696 57 26.6667C57 25.1638 56.403 23.7224 55.3403 22.6597C54.2776 21.597 52.8362 21 51.3333 21Z" fill="#FFE194"/>
</svg>
