<svg width="942" height="15" viewBox="0 0 942 15" fill="none" xmlns="http://www.w3.org/2000/svg">
<path d="M0.666667 7.5C0.666667 10.4455 3.05448 12.8333 6 12.8333C8.94552 12.8333 11.3333 10.4455 11.3333 7.5C11.3333 4.55448 8.94552 2.16667 6 2.16667C3.05448 2.16667 0.666667 4.55448 0.666667 7.5ZM940.726 8.20711C941.117 7.81658 941.117 7.18342 940.726 6.79289L934.362 0.428932C933.972 0.0384079 933.339 0.0384079 932.948 0.428932C932.558 0.819456 932.558 1.45262 932.948 1.84315L938.605 7.5L932.948 13.1569C932.558 13.5474 932.558 14.1805 932.948 14.5711C933.339 14.9616 933.972 14.9616 934.362 14.5711L940.726 8.20711ZM6 8.5H940.019V6.5L6 6.5V8.5Z" fill="#1B9C85"/>
</svg>
