<svg width="304" height="545" viewBox="0 0 304 545" fill="none" xmlns="http://www.w3.org/2000/svg">
<path d="M156.286 496.614C153.176 501.992 141.617 516.752 141.517 523.863C141.456 529.626 146.964 534.106 144.123 538.101C140.413 543.333 94.5563 539.772 93.327 539.53C92.0977 539.288 114.412 529.768 120.436 520.014C125.103 512.428 128.47 504.272 130.427 495.811L156.286 496.614Z" fill="#FCBE9F" stroke="#070707" stroke-linecap="round" stroke-linejoin="round"/>
<path d="M91.5243 540.087H144.948C146.093 540.087 147.02 540.908 147.02 541.92V542.031C147.02 543.043 146.093 543.864 144.948 543.864H91.5243C90.3799 543.864 89.4523 543.043 89.4523 542.031V541.92C89.4523 540.908 90.3799 540.087 91.5243 540.087Z" fill="#1B9C85" stroke="black" stroke-linecap="round" stroke-linejoin="round"/>
<path d="M122.169 540.087L110.502 527.452C110.502 527.452 91.5415 533.499 91.5415 540.064L122.169 540.087Z" fill="#1B9C85" stroke="black" stroke-linecap="round" stroke-linejoin="round"/>
<path d="M124.424 540.087C124.424 540.087 128.611 525.9 141.538 524.682C141.538 524.682 149.444 532.68 144.214 540.087H124.424Z" fill="#1B9C85" stroke="black" stroke-linecap="round" stroke-linejoin="round"/>
<path d="M129.68 498.873C134.319 500.752 143.054 503.959 150.817 504.924C153.102 501.497 155.208 498.489 156.29 496.618L130.44 495.796C130.44 495.796 130.21 496.933 129.68 498.873Z" fill="#1C0E0C"/>
<path d="M274.037 496.614C272.668 501.151 267.712 516.66 269.489 522.223C271.265 527.786 276.256 531.877 274.879 537.552C273.42 543.595 233.349 539.772 232.115 539.53C230.881 539.288 253.399 528.235 253.664 520.014C253.929 511.793 250.963 496.614 250.963 496.614H274.037Z" fill="#FCBE9F" stroke="#070707" stroke-linecap="round" stroke-linejoin="round"/>
<path d="M225.656 540.087H275.301C276.445 540.087 277.373 540.908 277.373 541.92V542.031C277.373 543.043 276.445 543.864 275.301 543.864H225.656C224.511 543.864 223.584 543.043 223.584 542.031V541.92C223.584 540.908 224.511 540.087 225.656 540.087Z" fill="#1B9C85" stroke="black" stroke-linecap="round" stroke-linejoin="round"/>
<path d="M261.183 540.318C261.183 540.318 255.971 534.709 248.647 533.057C240.611 531.247 236.711 532.212 232.375 534.152C228.179 536.027 225.829 540.076 225.829 540.076L261.183 540.318Z" fill="#1B9C85" stroke="black" stroke-linecap="round" stroke-linejoin="round"/>
<path d="M261.362 540.241C261.362 540.241 260.927 527.091 270.748 525.385C270.748 525.385 280.196 532.838 274.966 540.241H261.362Z" fill="#1B9C85" stroke="black" stroke-linecap="round" stroke-linejoin="round"/>
<path d="M274.037 496.618H250.967C250.967 496.618 251.536 499.534 252.153 503.498C260.554 504.198 269.185 501.735 272.864 500.506C273.342 498.881 273.759 497.528 274.037 496.618Z" fill="#1C0E0C"/>
<path d="M144.275 393.228C158.062 290.953 166.55 257.91 170.672 250.207L228.314 256.273C228.392 256.293 228.466 256.319 228.544 256.343C255.45 256.873 275.197 255.785 275.197 255.785C274.814 267.791 279.975 364.507 281.195 376.801C282.12 386.136 283.254 420.935 282.668 446.102C282.351 459.679 286.039 461.508 286.143 467.232C286.347 476.425 279.905 479.472 281.99 486.057C285.487 497.071 274.032 496.491 274.032 496.491C274.032 496.491 259.02 499.126 247.64 496.491C247.64 496.491 246.545 489.445 244.395 478.876C240.273 458.588 236.467 425.307 231.985 403.962C230.408 396.455 223.805 365.929 217.728 334.234C208.046 364.069 198.359 397.393 189.681 426.16C182.983 448.346 174.886 461.565 175.724 471.719C176.445 480.432 166.52 483.606 167.471 489.115C168.674 496.064 160.178 497.471 160.178 497.471C149.084 501.032 126.366 494.582 126.366 494.582C126.366 494.582 137.855 440.878 144.275 393.228Z" fill="#1C0E0C"/>
<path d="M217.576 334.184L208.698 289.044L200.358 286.593" stroke="#FFE194" stroke-linecap="round" stroke-linejoin="round"/>
<path d="M189.568 122.476C179.577 124.647 160.143 135.85 158.293 154.889C156.616 172.093 155.391 193.814 139.18 204.959C122.969 216.104 144.214 245.977 171.593 239.719C198.972 233.461 189.568 122.476 189.568 122.476Z" fill="#1C0E0C"/>
<path d="M158.349 217.203C154.118 220.418 140.327 210.975 135.761 205.677C131.891 201.175 129.15 192.539 128.872 190.848C128.594 189.158 130.08 181.924 130.08 181.924C130.08 181.924 133.555 180.825 134.31 185.823C135.066 190.821 140.235 198.501 142.703 198.436C148.25 198.317 138.324 192.796 138.085 190.798C137.846 188.801 138.919 188.167 138.919 188.167C138.919 188.167 148.475 192.992 149.913 193.899C151.351 194.805 156.077 200.153 157.732 203.833C159.387 207.514 160.955 215.197 158.349 217.203Z" fill="#FCBE9F" stroke="#070707" stroke-linecap="round" stroke-linejoin="round"/>
<path d="M274.892 259.066C229.222 260.691 180.993 259.262 169.751 253.442C160.395 248.605 178.977 222.635 177.427 195.431C176.51 179.392 174.056 137.74 177.427 132.3C180.797 126.86 185.923 124.82 196.704 120.237C201.296 118.285 247.787 119.33 247.787 119.33C268.485 124.136 276.543 133.787 270.145 199.784L274.892 259.066Z" fill="#FFE194" stroke="#070707" stroke-linecap="round" stroke-linejoin="round"/>
<path d="M232.063 172.392L228.983 305.97C261.357 320.07 286.551 306.551 286.551 306.551C286.151 259.777 275.014 253.592 280.092 201.263C282.581 175.374 298.957 157.294 295.273 145.308C289.557 126.737 260.045 122.258 247.466 119.338C247.466 119.338 235.616 126.56 232.063 172.392Z" fill="#1B9C85"/>
<mask id="mask0_74_677" style="mask-type:luminance" maskUnits="userSpaceOnUse" x="228" y="119" width="68" height="194">
<path d="M232.063 172.392L228.983 305.97C261.357 320.07 286.551 306.551 286.551 306.551C286.151 259.777 275.014 253.592 280.092 201.263C282.581 175.374 298.957 157.294 295.273 145.308C289.557 126.737 260.045 122.258 247.466 119.338C247.466 119.338 235.616 126.56 232.063 172.392Z" fill="white"/>
</mask>
<g mask="url(#mask0_74_677)">
<path d="M373.605 146.003H188.36" stroke="#070707" stroke-linecap="round" stroke-linejoin="round"/>
<path d="M373.605 176.968H168.24" stroke="#070707" stroke-linecap="round" stroke-linejoin="round"/>
<path d="M390.615 207.929H168.24" stroke="#070707" stroke-linecap="round" stroke-linejoin="round"/>
<path d="M399.685 238.893H125.11" stroke="#070707" stroke-linecap="round" stroke-linejoin="round"/>
<path d="M399.685 269.858H125.11" stroke="#070707" stroke-linecap="round" stroke-linejoin="round"/>
<path d="M399.685 300.822H125.11" stroke="#070707" stroke-linecap="round" stroke-linejoin="round"/>
<path d="M268.255 -78.4514V510.179" stroke="#070707" stroke-linecap="round" stroke-linejoin="round"/>
<path d="M236.637 -78.4514V510.179" stroke="#070707" stroke-linecap="round" stroke-linejoin="round"/>
</g>
<path d="M232.063 172.392L228.983 305.97C261.357 320.07 286.551 306.551 286.551 306.551C286.151 259.777 275.014 253.592 280.092 201.263C282.581 175.374 298.957 157.294 295.273 145.308C289.557 126.737 260.045 122.258 247.466 119.338C247.466 119.338 235.616 126.56 232.063 172.392Z" stroke="black" stroke-linecap="round" stroke-linejoin="round"/>
<path d="M180.858 185.02L173.313 303.911C158.049 308.548 152.272 301.56 152.272 301.56C152.272 269.308 166.524 245.209 165.373 202.143C163.605 135.923 176.966 124.732 197.664 119.929C197.664 119.925 176.237 129.937 180.858 185.02Z" fill="#1B9C85"/>
<mask id="mask1_74_677" style="mask-type:luminance" maskUnits="userSpaceOnUse" x="152" y="119" width="46" height="187">
<path d="M180.858 185.02L173.313 303.911C158.049 308.548 152.272 301.56 152.272 301.56C152.272 269.308 166.524 245.209 165.373 202.143C163.605 135.923 176.966 124.732 197.664 119.929C197.664 119.925 176.237 129.937 180.858 185.02Z" fill="white"/>
</mask>
<g mask="url(#mask1_74_677)">
<path d="M286.178 142.853H100.933" stroke="#070707" stroke-linecap="round" stroke-linejoin="round"/>
<path d="M286.178 173.818H80.8127" stroke="#070707" stroke-linecap="round" stroke-linejoin="round"/>
<path d="M303.188 204.778H80.8126" stroke="#070707" stroke-linecap="round" stroke-linejoin="round"/>
<path d="M312.258 235.743H37.6834" stroke="#070707" stroke-linecap="round" stroke-linejoin="round"/>
<path d="M312.258 266.708H37.6834" stroke="#070707" stroke-linecap="round" stroke-linejoin="round"/>
<path d="M312.258 297.668H37.6834" stroke="#070707" stroke-linecap="round" stroke-linejoin="round"/>
<path d="M180.828 -81.6017V507.029" stroke="#070707" stroke-linecap="round" stroke-linejoin="round"/>
</g>
<path d="M180.858 185.02L173.313 303.911C158.049 308.548 152.272 301.56 152.272 301.56C152.272 269.308 166.524 245.209 165.373 202.143C163.605 135.923 176.966 124.732 197.664 119.929C197.664 119.925 176.237 129.937 180.858 185.02Z" stroke="black" stroke-linecap="round" stroke-linejoin="round"/>
<path d="M189.103 217.499C190.084 218.945 191.345 220.227 192.83 221.287C208.689 232.758 256.588 249.089 279.935 244.26C279.64 241.375 279.41 238.54 279.232 235.735C252.018 236.815 204.862 226.899 190.975 218.832C190.304 218.442 189.677 217.995 189.103 217.499Z" fill="#1C0E0C"/>
<path d="M268.133 154.179C262.834 173.495 263.355 201.432 263.355 201.432C263.355 201.432 237.662 196.346 198.038 196.25C187.179 196.223 179.998 212.466 190.962 218.835C209.853 229.807 290.326 244.218 298.375 229.677C304.552 218.536 304.456 167.825 298.601 147.778C294.47 133.602 276.808 122.569 268.133 154.179Z" fill="#1B9C85"/>
<mask id="mask2_74_677" style="mask-type:luminance" maskUnits="userSpaceOnUse" x="185" y="133" width="118" height="103">
<path d="M268.133 154.179C262.834 173.495 263.355 201.432 263.355 201.432C263.355 201.432 237.662 196.346 198.038 196.25C187.179 196.223 179.998 212.466 190.962 218.835C209.853 229.807 290.326 244.218 298.375 229.677C304.552 218.536 304.456 167.825 298.601 147.778C294.47 133.602 276.808 122.569 268.133 154.179Z" fill="white"/>
</mask>
<g mask="url(#mask2_74_677)">
<path d="M355.469 145.892H150.109" stroke="#070707" stroke-linecap="round" stroke-linejoin="round"/>
<path d="M372.48 176.856H150.109" stroke="#070707" stroke-linecap="round" stroke-linejoin="round"/>
<path d="M381.549 207.821H106.975" stroke="#070707" stroke-linecap="round" stroke-linejoin="round"/>
<path d="M281.743 -109.527V479.107" stroke="#070707" stroke-linecap="round" stroke-linejoin="round"/>
<path d="M250.124 -109.527V479.107" stroke="#070707" stroke-linecap="round" stroke-linejoin="round"/>
<path d="M218.502 -109.527V479.107" stroke="#070707" stroke-linecap="round" stroke-linejoin="round"/>
<path d="M186.879 -109.527V479.107" stroke="#070707" stroke-linecap="round" stroke-linejoin="round"/>
</g>
<path d="M268.133 154.179C262.834 173.495 263.355 201.432 263.355 201.432C263.355 201.432 237.662 196.346 198.038 196.25C187.179 196.223 179.998 212.466 190.962 218.835C209.853 229.807 290.326 244.218 298.375 229.677C304.552 218.536 304.456 167.825 298.601 147.778C294.47 133.602 276.808 122.569 268.133 154.179Z" stroke="black" stroke-linecap="round" stroke-linejoin="round"/>
<path d="M194.003 196.803C195.41 196.692 197.308 201.321 197.308 208.382C197.308 221.828 189.867 218.056 188.69 216.734C182.57 209.85 187.331 197.322 194.003 196.803Z" fill="#1C0E0C"/>
<path d="M137.125 200.495H155.652C155.879 200.495 156.102 200.447 156.304 200.355C156.506 200.263 156.68 200.13 156.811 199.966C156.943 199.802 157.028 199.613 157.059 199.415C157.091 199.216 157.069 199.013 156.994 198.824L144.779 167.771C144.579 167.266 144.207 166.829 143.713 166.52C143.22 166.211 142.63 166.045 142.025 166.046H125.336C125.02 166.046 124.708 166.112 124.427 166.24C124.146 166.369 123.904 166.554 123.721 166.782C123.537 167.01 123.418 167.274 123.374 167.551C123.329 167.827 123.36 168.11 123.464 168.374L135.761 199.65C135.859 199.9 136.044 200.116 136.289 200.268C136.534 200.419 136.826 200.499 137.125 200.495Z" fill="#1B9C85" stroke="black" stroke-linecap="round" stroke-linejoin="round"/>
<path d="M136.465 200.495H153.666C153.893 200.495 154.117 200.447 154.319 200.355C154.521 200.263 154.694 200.13 154.826 199.966C154.957 199.802 155.042 199.613 155.074 199.415C155.106 199.216 155.084 199.013 155.009 198.824L142.794 167.771C142.594 167.266 142.221 166.829 141.728 166.52C141.234 166.211 140.645 166.045 140.04 166.046H124.689C124.373 166.045 124.061 166.112 123.78 166.24C123.499 166.368 123.257 166.554 123.074 166.782C122.891 167.01 122.772 167.274 122.728 167.551C122.684 167.828 122.716 168.11 122.821 168.374L135.123 199.65C135.219 199.896 135.401 200.111 135.641 200.262C135.882 200.413 136.17 200.495 136.465 200.495Z" fill="#EFAF00" stroke="black" stroke-linecap="round" stroke-linejoin="round"/>
<path d="M122.821 168.374L135.123 199.65C135.219 199.896 135.401 200.11 135.641 200.262C135.882 200.413 136.17 200.495 136.465 200.495H153.675C153.902 200.495 154.125 200.447 154.326 200.355C154.527 200.263 154.701 200.13 154.833 199.967C154.964 199.804 155.05 199.616 155.083 199.418C155.116 199.219 155.095 199.017 155.022 198.828L151.616 190.068C141.048 190.026 131.978 184.978 128.49 176.146L124.415 166.061C124.125 166.097 123.848 166.19 123.603 166.332C123.358 166.474 123.152 166.663 123 166.884C122.847 167.105 122.752 167.354 122.721 167.611C122.69 167.869 122.725 168.129 122.821 168.374Z" fill="#1C0E0C"/>
<path d="M130.084 195.612C131.035 196.88 133.073 202.692 142.611 204.959C152.15 207.226 164.582 205.405 166.55 206.111C167.957 206.63 180.62 211.106 187.704 213.607C188.317 213.821 188.975 213.914 189.633 213.88C190.291 213.845 190.932 213.683 191.511 213.406C192.091 213.129 192.595 212.743 192.988 212.275C193.381 211.808 193.653 211.269 193.785 210.699C194.598 207.156 195.627 201.993 194.624 196.784C194.624 196.784 171.167 195.585 169.525 194.479C167.884 193.372 162.245 187.679 158.553 186.864C155.512 186.188 152.858 185.712 151.794 185.554C151.942 185.965 152.711 188.958 153.445 190.814C154.231 192.807 137.347 190.929 135.809 190.203C134.271 189.477 131.561 185.208 129.293 183.23C127.026 181.251 125.475 181.878 125.475 181.878L130.084 195.612Z" fill="#FCBE9F" stroke="#070707" stroke-linecap="round" stroke-linejoin="round"/>
<path d="M228.757 93.6863C232.458 91.4466 244.92 76.7019 240.303 62.3222C235.685 47.9425 228.905 41.9609 219.11 43.1825C219.11 43.1825 211.647 38.7184 197.03 46.4557C182.965 53.8972 186.058 56.8823 186.058 67.1052C186.058 78.4883 189.728 75.9412 192.057 80.3785C194.124 84.3239 192.765 105.112 203.628 102.442C215.574 99.5066 228.757 93.6863 228.757 93.6863Z" fill="#1C0E0C"/>
<path d="M228.848 86.2909C228.653 90.9509 228.475 110.64 247.214 119.445C247.214 119.445 202.386 141.343 198.59 120.31C198.59 120.31 203.859 109.776 203.859 86.2909H228.848Z" fill="#FCBE9F" stroke="#070707" stroke-linecap="round" stroke-linejoin="round"/>
<path d="M201.27 112.407C226.464 107.882 228.848 86.2833 228.848 86.2833H203.859C203.859 96.9173 202.447 107.521 201.27 112.407Z" fill="#1C0E0C"/>
<path d="M201.682 102.557C219.301 105.077 229.917 84.9271 229.917 84.9271C233.687 83.0369 227.597 77.8851 226.342 77.8659C224.044 79.0377 220.061 78.3154 216.386 71.8958C213.967 67.6699 215.461 63.9933 213.076 61.9879C212.434 61.4843 211.742 61.033 211.009 60.6395C209.221 59.6732 207.166 59.1626 205.071 59.1642C189.62 59.1642 189.099 70.9277 189.025 75.5301C188.92 82.1841 191.766 101.139 201.682 102.557Z" fill="#FCBE9F" stroke="#070707" stroke-linecap="round" stroke-linejoin="round"/>
<path d="M202.922 77.4515C202.841 76.2293 203.519 75.2002 204.437 75.1529C205.354 75.1055 206.163 76.0579 206.244 77.28C206.324 78.5022 205.646 79.5314 204.729 79.5787C203.811 79.6261 203.002 78.6737 202.922 77.4515Z" fill="#1C0E0C"/>
<path d="M190.888 77.4504C190.807 76.2283 191.485 75.1991 192.403 75.1518C193.32 75.1044 194.129 76.0568 194.209 77.279C194.29 78.5011 193.612 79.5303 192.695 79.5776C191.777 79.625 190.968 78.6726 190.888 77.4504Z" fill="#1C0E0C"/>
<path d="M196.874 76.6826L193.794 83.617L196.201 86.2908" fill="#FCBE9F"/>
<path d="M196.874 76.6826L193.794 83.617L196.201 86.2908" stroke="#070707" stroke-linecap="round" stroke-linejoin="round"/>
<path d="M224.787 86.8173C220.769 86.8173 217.511 83.9363 217.511 80.3823C217.511 76.8284 220.769 73.9474 224.787 73.9474C228.805 73.9474 232.063 76.8284 232.063 80.3823C232.063 83.9363 228.805 86.8173 224.787 86.8173Z" fill="#FCBE9F"/>
<path d="M227.741 77.6163C227.741 77.6163 223.488 76.3485 221.833 80.6897Z" fill="#FCBE9F"/>
<path d="M227.741 77.6163C227.741 77.6163 223.488 76.3485 221.833 80.6897" stroke="#070707" stroke-linecap="round" stroke-linejoin="round"/>
<path d="M224.3 78.3154L226.698 80.3823" stroke="#070707" stroke-linecap="round" stroke-linejoin="round"/>
<path d="M208.454 71.7883C208.454 71.7883 206.361 69.2335 202.373 71.2043" stroke="#070707" stroke-linecap="round" stroke-linejoin="round"/>
<path d="M194.693 71.7883C194.693 71.7883 192.6 69.2335 188.612 71.2043" stroke="#070707" stroke-linecap="round" stroke-linejoin="round"/>
<path d="M205.418 87.8314C205.418 87.8314 202.951 91.0892 198.59 91.5349" stroke="#070707" stroke-linecap="round" stroke-linejoin="round"/>
<path d="M55.2276 129.899C25.2785 129.899 0.999954 108.426 0.999954 81.9382C0.999954 55.4504 25.2785 33.9777 55.2276 33.9777C85.1767 33.9777 109.455 55.4504 109.455 81.9382C109.455 108.426 85.1767 129.899 55.2276 129.899Z" fill="#1C0E0C"/>
<path d="M55.2277 125.085C25.2786 125.085 1.00002 103.612 1.00002 77.1245C1.00002 50.6366 25.2786 29.1639 55.2277 29.1639C85.1768 29.1639 109.455 50.6366 109.455 77.1245C109.455 103.612 85.1768 125.085 55.2277 125.085Z" fill="#FFE194" stroke="#070707" stroke-linecap="round" stroke-linejoin="round"/>
<path d="M50.5998 83.6575C54.9943 83.6575 57.1916 85.2591 57.1916 88.4622C57.1916 91.6653 54.9943 93.2669 50.5998 93.2669C49.9552 93.2669 49.34 93.1399 48.7541 92.886C48.1681 92.6321 47.6506 92.2903 47.2013 91.8606C46.7716 91.4309 46.4299 90.9329 46.1759 90.3665C45.922 89.7805 45.7951 89.1555 45.7951 88.4915C45.7951 87.8274 45.922 87.2024 46.1759 86.6165C46.4299 86.0305 46.7716 85.5227 47.2013 85.093C47.6506 84.6438 48.1681 84.2923 48.7541 84.0384C49.34 83.7845 49.9552 83.6575 50.5998 83.6575ZM47.9045 85.9427C47.299 86.6067 46.9963 87.4466 46.9963 88.4622C46.9963 88.97 47.0744 89.4388 47.2306 89.8684C47.4064 90.2981 47.631 90.679 47.9045 91.011C48.1974 91.343 48.5295 91.597 48.9006 91.7727C49.2912 91.968 49.7111 92.0657 50.1603 92.0657C50.6095 92.0657 51.0295 91.968 51.4201 91.7727C51.8107 91.5774 52.1427 91.3138 52.4162 90.9817C52.7091 90.6497 52.9338 90.2688 53.09 89.8391C53.2658 89.4095 53.3537 88.9505 53.3537 88.4622C53.3537 87.9739 53.2658 87.5149 53.09 87.0852C52.9338 86.6555 52.7091 86.2747 52.4162 85.9427C52.1427 85.6106 51.8107 85.347 51.4201 85.1516C51.0295 84.9563 50.6095 84.8587 50.1603 84.8587C49.2619 84.8587 48.5099 85.22 47.9045 85.9427ZM54.1447 45.513C58.1681 45.513 61.5275 46.4602 64.2228 48.3548C66.9377 50.2493 68.2951 52.9153 68.2951 56.3528C68.2951 58.4427 67.8166 60.2981 66.8595 61.9192C65.9025 63.5403 64.7404 64.9075 63.3732 66.0208C62.006 67.1145 60.6388 68.1692 59.2716 69.1848C57.924 70.2005 56.7716 71.3919 55.8146 72.7591C54.8576 74.1067 54.3791 75.6204 54.3791 77.3001V81.7532H47.5822V76.4212C47.5822 74.4095 47.9142 72.6321 48.5783 71.0891C49.2424 69.5462 50.0334 68.2766 50.9513 67.2805C51.8693 66.2845 52.7873 65.2981 53.7052 64.3216C54.6232 63.345 55.4142 62.1341 56.0783 60.6888C56.7424 59.2434 57.0744 57.5833 57.0744 55.7083C57.0744 54.302 56.7326 53.0716 56.049 52.0169C55.3654 50.9622 54.2716 50.3372 52.7677 50.1419C50.8732 50.1419 49.5646 50.6595 48.842 51.6946C49.8966 52.4173 50.424 53.4915 50.424 54.9173C50.424 56.1673 50.0041 57.222 49.1642 58.0813C48.3244 58.9407 47.2404 59.3704 45.9123 59.3704C44.4279 59.3704 43.256 58.9602 42.3966 58.1399C41.5373 57.3196 41.1076 56.1282 41.1076 54.5657C41.1076 52.2805 42.2502 50.2005 44.5353 48.3255C46.8205 46.4505 50.0236 45.513 54.1447 45.513ZM52.0353 46.7141C49.3986 46.7141 47.1525 47.4661 45.297 48.97C43.4611 50.4544 42.5431 52.261 42.5431 54.3899C42.5431 55.5423 42.8849 56.4407 43.5685 57.0852C44.2521 57.7298 45.1115 58.052 46.1466 58.052C46.4396 57.5247 46.4396 57.0657 46.1466 56.6751C45.1506 56.3821 44.6525 55.6985 44.6525 54.6243C44.6525 52.9055 45.2775 51.5188 46.5275 50.4641C47.797 49.3899 49.6134 48.8528 51.9767 48.8528C54.1838 48.8528 55.7853 49.5364 56.7814 50.9036C57.7775 52.2708 58.2756 53.8723 58.2756 55.7083C58.2756 57.6223 57.9435 59.3216 57.2795 60.8059C56.6154 62.2903 55.8244 63.5305 54.9064 64.5266C53.9884 65.5227 53.0705 66.5384 52.1525 67.5735C51.2345 68.5891 50.4435 69.8391 49.7795 71.3235C49.1154 72.7884 48.7834 74.4876 48.7834 76.4212V80.552H50.2189V77.3001C50.2189 75.6595 50.6974 74.1458 51.6545 72.7591C52.631 71.3528 53.7931 70.1223 55.1408 69.0677C56.508 67.9934 57.8654 66.8997 59.2131 65.7864C60.5802 64.6731 61.7424 63.3157 62.6994 61.7141C63.6759 60.1126 64.1642 58.3255 64.1642 56.3528C64.1642 52.9544 63.0509 50.5032 60.8244 48.9993C58.5978 47.4759 55.6681 46.7141 52.0353 46.7141Z" fill="black"/>
<path d="M171.597 67.1052C170.98 67.1045 170.373 66.9601 169.838 66.6864C169.304 66.4127 168.86 66.0193 168.552 65.5458C168.244 65.0723 168.082 64.5355 168.083 63.9891C168.084 63.4428 168.247 62.9063 168.557 62.4336C169.475 61.0538 170.785 59.9101 172.357 59.1157C173.929 58.3212 175.708 57.9036 177.518 57.9041H186.744C188.036 53.1618 191.095 48.9422 195.429 45.9252C199.763 42.9082 205.119 41.2695 210.635 41.2732H213.784C221.042 41.2732 228.003 43.8231 233.135 48.3621C238.267 52.901 241.15 59.0572 241.15 65.4763C241.149 65.9514 240.935 66.4068 240.554 66.7424C240.174 67.078 239.659 67.2665 239.121 67.2665H186.058L171.597 67.1052Z" fill="#FFE194" stroke="#070707" stroke-linecap="round" stroke-linejoin="round"/>
<path d="M111.41 195.712C110.541 195.831 109.673 195.935 108.83 196.019" stroke="#070707" stroke-linecap="round" stroke-linejoin="round"/>
<path d="M100.416 196.296C93.6597 196.078 87.0005 194.804 80.7473 192.531C76.4731 190.971 72.3421 188.893 69.2841 185.827C66.2261 182.761 64.3539 178.593 65.0837 174.559C65.5571 171.916 67.3685 169.277 70.2441 168.443C73.8364 167.406 77.9673 169.768 79.0055 172.98C80.0437 176.192 78.3757 179.776 75.5305 181.958C72.6853 184.141 68.8106 185.078 65.0403 185.235C55.0105 185.646 44.9764 180.533 40.3459 172.661C36.7753 166.584 36.5842 159.108 39.5075 152.788" stroke="#070707" stroke-linecap="round" stroke-linejoin="round" stroke-dasharray="11.64 19.39"/>
<path d="M41.4189 149.472C41.8751 148.819 42.3695 148.187 42.9001 147.578" stroke="#070707" stroke-linecap="round" stroke-linejoin="round"/>
<path d="M74.905 6.77032L67.5336 17.3352" stroke="#070707" stroke-linecap="round" stroke-linejoin="round"/>
<path d="M30.9416 6.77032L38.313 17.3352" stroke="#070707" stroke-linecap="round" stroke-linejoin="round"/>
<path d="M52.9255 13.7969V1" stroke="#070707" stroke-linecap="round" stroke-linejoin="round"/>
</svg>
